<svg width="289" height="54" viewBox="0 0 289 54" fill="none" xmlns="http://www.w3.org/2000/svg">
<rect width="289" height="54" rx="12" fill="#F2F5F8"/>
<path d="M30.704 20.088H32.16V34.248H30.704V20.088ZM21.072 26.12C21.072 23.08 22.576 21.176 24.688 21.176C26.784 21.176 28.304 23.08 28.304 26.12C28.304 29.144 26.784 31.08 24.688 31.08C22.576 31.08 21.072 29.144 21.072 26.12ZM22.48 26.12C22.48 28.36 23.392 29.768 24.688 29.768C25.984 29.768 26.896 28.36 26.896 26.12C26.896 23.88 25.984 22.488 24.688 22.488C23.392 22.488 22.48 23.88 22.48 26.12ZM34.4164 27.352H47.2004V28.536H34.4164V27.352ZM36.0324 21.576V20.456H45.5684V23.88H37.4884V25.112H45.8724V26.264H36.0644V22.808H44.1284V21.576H36.0324ZM36.1284 34.04V29.704H45.6004V34.04H36.1284ZM37.5524 32.872H44.1764V30.872H37.5524V32.872ZM54.6088 20.36C57.7448 20.36 59.6168 21.208 59.6168 22.776C59.6168 24.36 57.7448 25.224 54.6088 25.224C51.4888 25.224 49.6168 24.36 49.6168 22.776C49.6168 21.208 51.4888 20.36 54.6088 20.36ZM48.2408 27.272V26.104H60.9928V27.272H48.2408ZM49.7608 29.48V28.376H59.3768V31.656H51.2328V32.952H59.7928V34.088H49.8088V30.616H57.9368V29.48H49.7608ZM51.1208 22.776C51.1208 23.656 52.3848 24.12 54.6088 24.12C56.8488 24.12 58.1128 23.656 58.1128 22.776C58.1128 21.912 56.8488 21.432 54.6088 21.432C52.3848 21.432 51.1208 21.912 51.1208 22.776ZM75.7206 20.12H77.1766V27.688H75.7206V20.12ZM65.8806 24.024C65.8806 22.104 67.4486 20.776 69.5926 20.776C71.7366 20.776 73.3046 22.104 73.3046 24.024C73.3046 25.96 71.7366 27.304 69.5926 27.304C67.4486 27.304 65.8806 25.96 65.8806 24.024ZM67.3046 24.024C67.3046 25.256 68.2646 26.072 69.5926 26.072C70.9206 26.072 71.8806 25.256 71.8806 24.024C71.8806 22.808 70.9206 21.976 69.5926 21.976C68.2646 21.976 67.3046 22.808 67.3046 24.024ZM68.0246 34.04V28.376H69.4806V29.976H75.7366V28.376H77.1766V34.04H68.0246ZM69.4806 32.872H75.7366V31.128H69.4806V32.872ZM79.945 20.952H86.073V25.048H81.433V27.048C83.897 27.048 85.225 26.984 86.809 26.696L86.953 27.88C85.225 28.184 83.817 28.232 81.001 28.232H79.993V23.928H84.633V22.136H79.945V20.952ZM81.577 30.712V29.528H91.065V34.248H89.609V30.712H81.577ZM86.969 26.296V25.128H89.609V23.368H86.969V22.168H89.609V20.12H91.065V28.792H89.609V26.296H86.969ZM93.2094 22.456H95.9774V20.504H97.4174V22.456H100.153V23.64H93.2094V22.456ZM93.6574 27.752C93.6574 25.864 94.9214 24.52 96.6974 24.52C98.4574 24.52 99.7374 25.864 99.7374 27.752C99.7374 29.688 98.4574 31.016 96.6974 31.016C94.9214 31.016 93.6574 29.688 93.6574 27.752ZM94.9534 27.752C94.9534 28.968 95.6734 29.784 96.6974 29.784C97.7054 29.784 98.4414 28.968 98.4414 27.752C98.4414 26.552 97.7054 25.736 96.6974 25.736C95.6734 25.736 94.9534 26.552 94.9534 27.752ZM100.809 33.544V20.424H102.185V26.008H103.817V20.104H105.209V34.216H103.817V27.208H102.185V33.544H100.809ZM110.593 28.104H123.361V29.304H117.665V34.232H116.225V29.304H110.593V28.104ZM111.329 25.832C113.921 25.48 116.129 23.88 116.161 22.136H111.777V20.968H122.145V22.136H117.793C117.825 23.88 120.033 25.48 122.625 25.832L122.081 27.016C119.825 26.648 117.841 25.496 116.977 23.88C116.113 25.496 114.129 26.648 111.873 27.016L111.329 25.832ZM129.97 25.096H132.162V20.408H133.522V33.528H132.162V26.296H129.97V25.096ZM124.226 30.152C126.194 28.968 127.25 26.44 127.25 24.024V21.432H128.658V23.976C128.658 26.248 129.618 28.632 131.49 29.8L130.658 30.936C129.362 30.136 128.466 28.712 127.97 27.064C127.458 28.856 126.482 30.392 125.122 31.24L124.226 30.152ZM135.026 34.216V20.104H136.434V34.216H135.026ZM138.242 31.24H141.314V27.512C140.162 26.888 139.458 25.88 139.458 24.616C139.458 22.392 141.634 20.952 144.61 20.952C147.634 20.952 149.778 22.392 149.778 24.616C149.778 25.864 149.106 26.856 147.97 27.496V31.24H151.026V32.44H138.242V31.24ZM140.882 24.616C140.882 26.152 142.434 27.128 144.61 27.128C146.802 27.128 148.354 26.152 148.354 24.616C148.354 23.08 146.802 22.104 144.61 22.104C142.434 22.104 140.882 23.08 140.882 24.616ZM142.754 31.24H146.498V28.056C145.922 28.2 145.282 28.264 144.61 28.264C143.954 28.264 143.33 28.2 142.754 28.056V31.24ZM153.298 31.512C153.826 31.512 154.178 31.864 154.178 32.392C154.178 32.92 153.826 33.288 153.298 33.288C152.77 33.288 152.402 32.92 152.402 32.392C152.402 31.864 152.77 31.512 153.298 31.512Z" fill="#B1BAC5"/>
</svg>
