<svg width="289" height="54" viewBox="0 0 289 54" fill="none" xmlns="http://www.w3.org/2000/svg">
<rect width="289" height="54" rx="12" fill="#F2F5F8"/>
<path d="M27.104 28.392C26.976 27.208 26.384 25.976 24.768 25.976C23.44 25.976 22.4 27 22.208 28.408L27.104 28.392ZM20.816 28.936C20.816 26.488 22.432 24.776 24.736 24.776C27.312 24.776 28.064 26.84 28.128 27.016C28.624 28.264 28.448 29.464 28.448 29.544H22.208C22.4 30.936 23.488 31.896 24.752 31.896C26.48 31.896 26.992 30.84 27.088 30.712L28.208 31.288C28.208 31.288 27.456 33.096 24.736 33.096C22.432 33.096 20.816 31.384 20.816 28.936ZM36.9595 24.792L33.8555 28.936L36.9435 33.064H35.1835L33.0715 30.12L30.9755 33.064H29.2155L32.2715 28.936L29.1835 24.792H30.9435L33.0715 27.784L35.1995 24.792H36.9595ZM39.2853 31.512C39.8133 31.512 40.1653 31.864 40.1653 32.392C40.1653 32.92 39.8133 33.288 39.2853 33.288C38.7573 33.288 38.3893 32.92 38.3893 32.392C38.3893 31.864 38.7573 31.512 39.2853 31.512ZM52.1013 29.88C55.1733 29.88 56.9493 30.616 56.9493 32.04C56.9493 33.464 55.1733 34.2 52.1013 34.2C48.9973 34.2 47.2533 33.464 47.2533 32.04C47.2533 30.616 48.9973 29.88 52.1013 29.88ZM45.7333 29.08V27.928H51.3813V26.92C48.8853 26.808 47.5253 26.136 47.5253 24.92C47.5253 23.608 49.1573 22.92 52.1013 22.92C55.0453 22.92 56.6933 23.608 56.6933 24.92C56.6933 26.136 55.3173 26.808 52.8373 26.92V27.928H58.4853V29.08H45.7333ZM46.3893 22.392V21.24H51.3813V19.928H52.8373V21.24H57.7653V22.392H46.3893ZM48.7413 32.04C48.7413 32.76 49.9093 33.112 52.1013 33.112C54.2773 33.112 55.4453 32.76 55.4453 32.04C55.4453 31.32 54.2773 30.952 52.1013 30.952C49.9093 30.952 48.7413 31.32 48.7413 32.04ZM49.0613 24.92C49.0613 25.576 50.1333 25.912 52.1013 25.912C54.0853 25.912 55.1573 25.576 55.1573 24.92C55.1573 24.28 54.0853 23.928 52.1013 23.928C50.1333 23.928 49.0613 24.28 49.0613 24.92ZM69.6856 20.104H71.1576V27.288H69.6856V20.104ZM59.7816 26.392C63.2856 25.656 65.1256 24.056 65.3496 21.944H60.5016V20.744H66.9496C66.9496 24.424 64.5336 26.632 60.3096 27.576L59.7816 26.392ZM61.9736 29.08V27.944H71.1576V31.464H63.4456V32.936H71.6056V34.088H62.0056V30.376H69.7016V29.08H61.9736ZM73.398 27H79.03V25.496H74.998V20.76H84.566V21.928H76.438V24.312H84.662V25.496H80.486V27H86.15V28.184H73.398V27ZM74.902 31.672C74.902 30.04 76.726 29.112 79.75 29.112C82.758 29.112 84.598 30.04 84.598 31.672C84.598 33.304 82.758 34.216 79.75 34.216C76.726 34.216 74.902 33.304 74.902 31.672ZM76.374 31.672C76.374 32.6 77.622 33.096 79.75 33.096C81.878 33.096 83.11 32.6 83.11 31.672C83.11 30.76 81.878 30.248 79.75 30.248C77.622 30.248 76.374 30.76 76.374 31.672Z" fill="#B1BAC5"/>
</svg>
