<svg width="289" height="96" viewBox="0 0 289 96" fill="none" xmlns="http://www.w3.org/2000/svg">
<rect width="289" height="96" rx="12" fill="#F2F5F8"/>
<path d="M30.896 35.952C32.4533 35.952 33.6907 36.192 34.608 36.672C35.5253 37.152 35.984 37.8133 35.984 38.656C35.984 39.2107 35.776 39.6907 35.36 40.096C34.944 40.5013 34.352 40.8107 33.584 41.024C32.8267 41.2373 31.9307 41.344 30.896 41.344C29.872 41.344 28.9813 41.2373 28.224 41.024C27.4667 40.8107 26.88 40.5013 26.464 40.096C26.048 39.6907 25.84 39.2107 25.84 38.656C25.84 38.1013 26.048 37.6213 26.464 37.216C26.88 36.8 27.4667 36.4853 28.224 36.272C28.9813 36.0587 29.872 35.952 30.896 35.952ZM24.528 33.424H29.36V30.912H31.344V33.424H37.44V35.008H24.528V33.424ZM25.984 27.664H35.888V28.832C35.888 29.6 35.8667 30.2667 35.824 30.832C35.7813 31.3973 35.6747 32.0107 35.504 32.672L33.552 32.464C33.7013 31.8667 33.7973 31.3227 33.84 30.832C33.8933 30.3307 33.92 29.7973 33.92 29.232H25.984V27.664ZM27.808 38.656C27.808 39.04 28.0747 39.3387 28.608 39.552C29.152 39.7547 29.9147 39.856 30.896 39.856C31.8987 39.856 32.6667 39.7547 33.2 39.552C33.744 39.3493 34.016 39.0507 34.016 38.656C34.016 38.2613 33.744 37.9627 33.2 37.76C32.6667 37.5467 31.8987 37.44 30.896 37.44C29.9147 37.44 29.152 37.5467 28.608 37.76C28.0747 37.9627 27.808 38.2613 27.808 38.656ZM46.9604 28.384V30.016H43.9524V30.928C43.9524 31.7173 44.091 32.496 44.3684 33.264C44.6457 34.032 45.051 34.72 45.5844 35.328C46.1284 35.936 46.779 36.4 47.5364 36.72L46.4484 38.288C45.6484 37.936 44.955 37.424 44.3684 36.752C43.7817 36.08 43.323 35.296 42.9924 34.4C42.6617 35.3813 42.1977 36.24 41.6004 36.976C41.003 37.712 40.299 38.2667 39.4884 38.64L38.3684 37.072C39.1257 36.7307 39.771 36.2347 40.3044 35.584C40.8484 34.9333 41.259 34.2027 41.5364 33.392C41.8137 32.5813 41.9524 31.76 41.9524 30.928V30.016H38.9284V28.384H46.9604ZM48.3524 27.008H50.3364V41.344H48.3524V27.008ZM57.6968 28.128V30.24C57.6968 31.6053 57.9794 32.864 58.5448 34.016C59.1208 35.168 59.9581 36.0107 61.0568 36.544L59.8568 38.112C59.1208 37.7387 58.4914 37.216 57.9688 36.544C57.4461 35.872 57.0301 35.088 56.7208 34.192C56.4008 35.152 55.9581 35.9947 55.3928 36.72C54.8274 37.4453 54.1554 38 53.3768 38.384L52.1768 36.784C52.9448 36.4213 53.5954 35.8987 54.1288 35.216C54.6621 34.5333 55.0621 33.7653 55.3288 32.912C55.5954 32.048 55.7288 31.1573 55.7288 30.24V28.128H57.6968ZM61.6808 27.008H63.6648V32.544H65.7928V34.192H63.6648V41.344H61.6808V27.008ZM77.7131 27.008V30.688H79.6491V32.304H77.7131V36.096H75.7291V27.008H77.7131ZM66.4651 28.384H69.6811V26.896H71.6651V28.384H74.8971V29.936H66.4651V28.384ZM67.1691 32.992C67.1691 32.4907 67.3185 32.048 67.6171 31.664C67.9158 31.2693 68.3318 30.9653 68.8651 30.752C69.3985 30.5387 70.0065 30.432 70.6891 30.432C71.3718 30.432 71.9745 30.5387 72.4971 30.752C73.0305 30.9653 73.4465 31.2693 73.7451 31.664C74.0438 32.048 74.1931 32.4907 74.1931 32.992C74.1931 33.504 74.0438 33.9573 73.7451 34.352C73.4571 34.736 73.0465 35.0347 72.5131 35.248C71.9798 35.4613 71.3718 35.568 70.6891 35.568C70.0065 35.568 69.3985 35.4613 68.8651 35.248C68.3318 35.0347 67.9158 34.736 67.6171 34.352C67.3185 33.9573 67.1691 33.504 67.1691 32.992ZM68.2731 38.8C68.2731 38 68.6998 37.376 69.5531 36.928C70.4171 36.48 71.5958 36.256 73.0891 36.256C74.5718 36.256 75.7398 36.48 76.5931 36.928C77.4465 37.376 77.8731 38 77.8731 38.8C77.8731 39.6 77.4465 40.224 76.5931 40.672C75.7398 41.12 74.5718 41.344 73.0891 41.344C71.5958 41.344 70.4171 41.12 69.5531 40.672C68.6998 40.224 68.2731 39.6 68.2731 38.8ZM69.0731 32.992C69.0731 33.344 69.2171 33.6213 69.5051 33.824C69.8038 34.0267 70.1985 34.128 70.6891 34.128C71.1691 34.128 71.5531 34.0267 71.8411 33.824C72.1398 33.6213 72.2891 33.344 72.2891 32.992C72.2891 32.64 72.1398 32.368 71.8411 32.176C71.5531 31.984 71.1691 31.888 70.6891 31.888C70.1878 31.888 69.7931 31.984 69.5051 32.176C69.2171 32.368 69.0731 32.64 69.0731 32.992ZM70.2571 38.8C70.2571 39.152 70.4971 39.4187 70.9771 39.6C71.4571 39.7707 72.1611 39.856 73.0891 39.856C74.0171 39.856 74.7211 39.7707 75.2011 39.6C75.6811 39.4187 75.9211 39.152 75.9211 38.8C75.9211 38.448 75.6811 38.1867 75.2011 38.016C74.7211 37.8347 74.0171 37.744 73.0891 37.744C72.1611 37.744 71.4571 37.8347 70.9771 38.016C70.4971 38.1867 70.2571 38.448 70.2571 38.8Z" fill="#42464A"/>
<path d="M36.368 54.992V69.376H34.384V54.992H36.368ZM25.376 56.288H32.272V57.888H27.328V64.288C28.7147 64.2773 29.84 64.2453 30.704 64.192C31.568 64.1387 32.4213 64.0267 33.264 63.856L33.44 65.488C32.5227 65.68 31.5733 65.8027 30.592 65.856C29.6213 65.9093 28.288 65.936 26.592 65.936H25.376V56.288ZM46.0484 56.288V65.904H39.2004V56.288H46.0484ZM44.1124 64.336V57.856H41.1524V64.336H44.1124ZM48.3684 54.976H50.3524V69.36H48.3684V54.976ZM64.1608 56.224V57.616C64.1608 58.8427 64.1288 59.952 64.0648 60.944C64.0114 61.936 63.8621 63.104 63.6168 64.448L61.6168 64.24C61.8621 63.024 62.0168 61.936 62.0808 60.976C62.1448 60.0053 62.1768 58.9547 62.1768 57.824H53.7928V56.224H64.1608ZM52.4808 65.952H57.1048V61.024H59.0888V65.952H65.4408V67.584H52.4808V65.952ZM82.0246 55.008V62.704H80.0246V55.008H82.0246ZM70.3446 58.976C70.3446 58.3253 70.51 57.744 70.8406 57.232C71.182 56.72 71.646 56.32 72.2326 56.032C72.83 55.744 73.4966 55.6 74.2326 55.6C74.9686 55.6 75.63 55.744 76.2166 56.032C76.814 56.32 77.278 56.72 77.6086 57.232C77.95 57.744 78.1206 58.3253 78.1206 58.976C78.1206 59.6267 77.95 60.208 77.6086 60.72C77.278 61.232 76.814 61.632 76.2166 61.92C75.63 62.208 74.9686 62.352 74.2326 62.352C73.4966 62.352 72.83 62.208 72.2326 61.92C71.646 61.632 71.182 61.232 70.8406 60.72C70.51 60.208 70.3446 59.6267 70.3446 58.976ZM72.2806 58.976C72.2806 59.5093 72.462 59.9307 72.8246 60.24C73.1873 60.5493 73.6566 60.704 74.2326 60.704C74.8086 60.704 75.278 60.5493 75.6406 60.24C76.0033 59.9307 76.1846 59.5093 76.1846 58.976C76.1846 58.4427 76.0033 58.0213 75.6406 57.712C75.278 57.392 74.8086 57.232 74.2326 57.232C73.6566 57.232 73.1873 57.392 72.8246 57.712C72.462 58.0213 72.2806 58.4427 72.2806 58.976ZM72.5206 63.344H74.4886V64.704H80.0566V63.344H82.0246V69.184H72.5206V63.344ZM80.0566 67.6V66.24H74.4886V67.6H80.0566ZM87.353 56.272V54.912H89.337V56.272H92.569V57.84H84.137V56.272H87.353ZM84.841 60.96C84.841 60.4373 84.9903 59.9787 85.289 59.584C85.5877 59.1787 86.0037 58.8693 86.537 58.656C87.0703 58.432 87.6783 58.32 88.361 58.32C89.0437 58.32 89.6463 58.432 90.169 58.656C90.7023 58.8693 91.1183 59.1787 91.417 59.584C91.7157 59.9787 91.865 60.4373 91.865 60.96C91.865 61.4827 91.7157 61.9467 91.417 62.352C91.1183 62.7467 90.7023 63.056 90.169 63.28C89.6463 63.4933 89.0437 63.6 88.361 63.6C87.6783 63.6 87.0703 63.4933 86.537 63.28C86.0037 63.056 85.5877 62.7467 85.289 62.352C84.9903 61.9467 84.841 61.4827 84.841 60.96ZM85.849 64.592H95.385V69.344H93.401V66.176H85.849V64.592ZM86.745 60.96C86.745 61.3227 86.889 61.6053 87.177 61.808C87.4757 62.0107 87.8703 62.112 88.361 62.112C88.841 62.112 89.225 62.0107 89.513 61.808C89.8117 61.6053 89.961 61.3227 89.961 60.96C89.961 60.5973 89.817 60.32 89.529 60.128C89.241 59.9253 88.8517 59.824 88.361 59.824C87.8597 59.824 87.465 59.92 87.177 60.112C86.889 60.304 86.745 60.5867 86.745 60.96ZM93.401 55.008H95.385V58.72H97.321V60.336H95.385V63.984H93.401V55.008ZM108.089 57.152V55.008H110.073V62.288H108.089V58.736H105.417V57.152H108.089ZM97.9934 60.832C99.124 60.4907 99.972 59.9307 100.537 59.152C101.113 58.3733 101.401 57.4933 101.401 56.512V55.456H103.401V56.512C103.401 57.4187 103.673 58.2453 104.217 58.992C104.772 59.728 105.583 60.2613 106.649 60.592L105.625 62.112C104.889 61.8667 104.249 61.5147 103.705 61.056C103.172 60.5867 102.745 60.0373 102.425 59.408C102.105 60.112 101.657 60.72 101.081 61.232C100.516 61.744 99.828 62.128 99.0174 62.384L97.9934 60.832ZM100.633 62.912H110.073V66.72H102.601V67.648H110.489V69.184H100.649V65.28H108.105V64.432H100.633V62.912ZM124.074 55.008V63.408H122.074V61.536H119.434V62.608H112.682V56.032H119.434V57.088H122.074V55.008H124.074ZM114.314 66.544C114.314 65.68 114.751 65.0027 115.626 64.512C116.5 64.0213 117.695 63.776 119.21 63.776C120.724 63.776 121.919 64.0213 122.794 64.512C123.679 65.0027 124.122 65.68 124.122 66.544C124.122 67.4293 123.684 68.1173 122.81 68.608C121.935 69.0987 120.735 69.344 119.21 69.344C117.684 69.344 116.484 69.0987 115.61 68.608C114.746 68.1173 114.314 67.4293 114.314 66.544ZM117.498 61.056V57.6H114.634V61.056H117.498ZM116.298 66.544C116.298 66.9707 116.543 67.2907 117.034 67.504C117.535 67.7173 118.26 67.824 119.21 67.824C120.17 67.824 120.895 67.7173 121.386 67.504C121.887 67.2907 122.138 66.9707 122.138 66.544C122.138 66.128 121.887 65.8187 121.386 65.616C120.895 65.4027 120.17 65.296 119.21 65.296C118.26 65.296 117.535 65.4027 117.034 65.616C116.543 65.8187 116.298 66.128 116.298 66.544ZM122.074 59.968V58.672H119.434V59.968H122.074ZM137.994 55.008V69.344H136.01V55.008H137.994ZM126.138 65.312C127.685 65.312 128.885 65.3013 129.738 65.28V64.032C128.959 63.8827 128.335 63.5787 127.866 63.12C127.407 62.6507 127.178 62.0853 127.178 61.424C127.178 60.9013 127.327 60.4373 127.626 60.032C127.925 59.6267 128.341 59.312 128.874 59.088C129.418 58.864 130.037 58.752 130.73 58.752C131.423 58.752 132.042 58.864 132.586 59.088C133.13 59.312 133.551 59.6267 133.85 60.032C134.149 60.4373 134.298 60.9013 134.298 61.424C134.298 62.096 134.063 62.6667 133.594 63.136C133.135 63.5947 132.511 63.8987 131.722 64.048V65.2C133.034 65.1253 134.213 65.024 135.258 64.896L135.386 66.32C134.01 66.576 132.607 66.7413 131.178 66.816C129.749 66.88 128.149 66.912 126.378 66.912L126.138 65.312ZM126.41 56.592H129.738V55.056H131.722V56.592H135.05V58.144H126.41V56.592ZM129.066 61.424C129.066 61.808 129.215 62.1067 129.514 62.32C129.823 62.5227 130.229 62.624 130.73 62.624C131.242 62.624 131.647 62.5227 131.946 62.32C132.255 62.1067 132.41 61.808 132.41 61.424C132.41 61.0507 132.255 60.7627 131.946 60.56C131.647 60.3467 131.242 60.24 130.73 60.24C130.229 60.24 129.823 60.3467 129.514 60.56C129.215 60.7627 129.066 61.0507 129.066 61.424ZM156.002 54.992V69.328H154.098V62.032H152.786V68.704H150.914V55.36H152.786V60.432H154.098V54.992H156.002ZM143.57 65.008C144.999 64.1653 146.055 63.2107 146.738 62.144C147.431 61.0667 147.842 59.8027 147.97 58.352H144.274V56.768H149.922C149.922 58.912 149.533 60.7733 148.754 62.352C147.975 63.9307 146.631 65.2747 144.722 66.384L143.57 65.008ZM163.426 62.768V64.928C164.632 64.864 165.778 64.752 166.866 64.592L167.01 66.016C165.645 66.2933 164.258 66.4693 162.85 66.544C161.453 66.6187 159.842 66.6613 158.018 66.672L157.778 65.056C159.325 65.056 160.541 65.04 161.426 65.008V62.768H163.426ZM158.082 61.68C159.106 61.4133 159.896 60.976 160.45 60.368C161.016 59.7493 161.33 59.0507 161.394 58.272H158.498V56.704H161.426V55.12H163.426V56.704H166.37V58.272H163.442C163.506 59.008 163.821 59.6747 164.386 60.272C164.962 60.8693 165.757 61.3013 166.77 61.568L165.89 63.072C165.08 62.8587 164.381 62.5333 163.794 62.096C163.218 61.648 162.765 61.1147 162.434 60.496C162.114 61.1467 161.661 61.7067 161.074 62.176C160.498 62.6453 159.8 62.992 158.978 63.216L158.082 61.68ZM167.666 54.976H169.65V69.36H167.666V54.976ZM186.666 54.992V59.12H188.602V60.752H186.666V65.44H184.682V54.992H186.666ZM175.53 59.568C175.53 58.8747 175.701 58.2507 176.042 57.696C176.384 57.1413 176.848 56.7093 177.434 56.4C178.021 56.08 178.677 55.92 179.402 55.92C180.128 55.92 180.784 56.08 181.37 56.4C181.957 56.7093 182.421 57.1413 182.762 57.696C183.104 58.2507 183.274 58.8747 183.274 59.568C183.274 60.2507 183.104 60.8693 182.762 61.424C182.421 61.9787 181.957 62.416 181.37 62.736C180.784 63.0453 180.128 63.2 179.402 63.2C178.677 63.2 178.021 63.0453 177.434 62.736C176.848 62.416 176.384 61.9787 176.042 61.424C175.701 60.8693 175.53 60.2507 175.53 59.568ZM177.45 59.568C177.45 60.144 177.637 60.608 178.01 60.96C178.384 61.3013 178.848 61.472 179.402 61.472C179.968 61.472 180.432 61.3013 180.794 60.96C181.168 60.608 181.354 60.144 181.354 59.568C181.354 58.9813 181.168 58.5173 180.794 58.176C180.432 57.824 179.968 57.648 179.402 57.648C178.848 57.648 178.384 57.824 178.01 58.176C177.637 58.5173 177.45 58.9813 177.45 59.568ZM177.466 64.352H179.45V67.488H187.21V69.072H177.466V64.352ZM201.643 54.992V69.328H199.755V62.16H198.395V68.64H196.555V55.264H198.395V60.56H199.755V54.992H201.643ZM189.963 56.608H191.931V64.112C193.296 64.0693 194.565 63.936 195.739 63.712L195.931 65.408C194.459 65.6853 192.8 65.824 190.955 65.824H189.963V56.608Z" fill="#42464A"/>
</svg>
