<svg width="289" height="96" viewBox="0 0 289 96" fill="none" xmlns="http://www.w3.org/2000/svg">
<rect width="289" height="96" rx="12" fill="#F2F5F8"/>
<path d="M30.048 34.5C32.68 34.5 34.374 35.354 34.374 36.782C34.374 38.21 32.68 39.064 30.048 39.064C27.416 39.064 25.736 38.21 25.736 36.782C25.736 35.354 27.416 34.5 30.048 34.5ZM24.532 33.45V32.428H29.012V30.104H30.272V32.428H35.662V33.45H24.532ZM25.834 28.368V27.332H34.276V28.382C34.276 29.376 34.276 30.384 33.94 31.658L32.68 31.518C33.002 30.244 33.002 29.334 33.002 28.382V28.368H25.834ZM27.01 36.782C27.01 37.594 28.172 38.084 30.048 38.084C31.924 38.084 33.1 37.594 33.1 36.782C33.1 35.97 31.924 35.48 30.048 35.48C28.172 35.48 27.01 35.97 27.01 36.782ZM37.1323 27.962H44.0483V29.026H41.2203V30.398C41.2203 32.47 42.6063 34.584 44.4683 35.396L43.7543 36.404C42.3263 35.76 41.1643 34.388 40.5903 32.736C40.0303 34.5 38.8823 36.012 37.4543 36.712L36.7263 35.704C38.5603 34.822 39.9463 32.512 39.9463 30.398V29.026H37.1323V27.962ZM45.5883 39.078V26.73H46.8623V39.078H45.5883ZM51.9727 27.766H53.2187V29.866C53.2187 32.064 54.4927 34.318 56.2987 35.214L55.5287 36.222C54.1847 35.522 53.1487 34.136 52.6167 32.484C52.0567 34.248 50.9787 35.732 49.5787 36.46L48.8087 35.424C50.6707 34.514 51.9727 32.148 51.9727 29.866V27.766ZM57.2367 39.078V26.73H58.5247V31.658H60.4987V32.736H58.5247V39.078H57.2367ZM69.557 26.73H70.845V30.09H72.623V31.14H70.845V34.64H69.557V26.73ZM61.255 29.082V28.074H64.265V26.618H65.539V28.074H68.549V29.082H61.255ZM61.927 31.826C61.927 30.524 63.131 29.656 64.895 29.656C66.673 29.656 67.877 30.524 67.877 31.826C67.877 33.17 66.673 34.024 64.895 34.024C63.131 34.024 61.927 33.17 61.927 31.826ZM62.893 36.908C62.893 35.55 64.433 34.766 66.939 34.766C69.445 34.766 70.985 35.55 70.985 36.908C70.985 38.252 69.445 39.05 66.939 39.05C64.433 39.05 62.893 38.252 62.893 36.908ZM63.145 31.826C63.145 32.596 63.845 33.072 64.895 33.072C65.945 33.072 66.645 32.596 66.645 31.826C66.645 31.084 65.945 30.608 64.895 30.608C63.845 30.608 63.145 31.084 63.145 31.826ZM64.153 36.908C64.153 37.664 65.189 38.084 66.939 38.084C68.689 38.084 69.725 37.664 69.725 36.908C69.725 36.152 68.689 35.732 66.939 35.732C65.189 35.732 64.153 36.152 64.153 36.908Z" fill="#9099A6"/>
<path d="M35.682 53.366H37.914V69.548H35.682V53.366ZM25.548 65.678V54.824H33.306V56.624H27.744V63.824C30.606 63.806 32.406 63.734 34.422 63.338L34.62 65.174C32.406 65.624 30.354 65.678 26.916 65.678H25.548ZM41.1004 54.824H48.8044V65.642H41.1004V54.824ZM43.2964 63.878H46.6264V56.588H43.2964V63.878ZM51.4144 69.53V53.348H53.6464V69.53H51.4144ZM57.5168 54.752H69.1808V56.318C69.1808 58.316 69.1808 60.584 68.5688 64.004L66.3188 63.77C66.9308 60.692 66.9488 58.424 66.9488 56.552H57.5168V54.752ZM56.0408 67.532V65.696H61.2428V60.152H63.4748V65.696H70.6208V67.532H56.0408ZM87.0277 53.384H89.2777V62.042H87.0277V53.384ZM76.1377 57.848C76.1377 55.616 78.0097 54.05 80.5117 54.05C83.0137 54.05 84.8857 55.616 84.8857 57.848C84.8857 60.062 83.0137 61.646 80.5117 61.646C78.0097 61.646 76.1377 60.062 76.1377 57.848ZM78.3157 57.848C78.3157 59.072 79.2517 59.792 80.5117 59.792C81.7717 59.792 82.7077 59.072 82.7077 57.848C82.7077 56.624 81.7717 55.886 80.5117 55.886C79.2517 55.886 78.3157 56.624 78.3157 57.848ZM78.5857 69.332V62.762H80.7997V64.292H87.0637V62.762H89.2777V69.332H78.5857ZM80.7997 67.55H87.0637V66.02H80.7997V67.55ZM91.6541 54.806H95.2721V53.276H97.5041V54.806H101.14V56.57H91.6541V54.806ZM92.4461 60.08C92.4461 58.298 94.0661 57.11 96.4061 57.11C98.7281 57.11 100.348 58.298 100.348 60.08C100.348 61.862 98.7281 63.05 96.4061 63.05C94.0661 63.05 92.4461 61.862 92.4461 60.08ZM93.5801 65.948V64.166H104.308V69.512H102.076V65.948H93.5801ZM94.5881 60.08C94.5881 60.908 95.3081 61.376 96.4061 61.376C97.4681 61.376 98.2061 60.908 98.2061 60.08C98.2061 59.234 97.4681 58.802 96.4061 58.802C95.3081 58.802 94.5881 59.234 94.5881 60.08ZM102.076 63.482V53.384H104.308V57.56H106.486V59.378H104.308V63.482H102.076ZM115.595 55.796H118.601V53.384H120.833V61.574H118.601V57.578H115.595V55.796ZM107.243 59.936C109.907 59.144 111.077 57.164 111.077 55.076V53.888H113.327V55.076C113.327 57.002 114.479 58.892 116.981 59.666L115.829 61.376C114.119 60.818 112.931 59.72 112.229 58.334C111.527 59.882 110.267 61.088 108.395 61.682L107.243 59.936ZM110.213 63.986V62.276H120.833V66.56H112.427V67.604H121.301V69.332H110.231V64.94H118.619V63.986H110.213ZM134.333 53.384H136.583V62.834H134.333V60.728H131.363V61.934H123.767V54.536H131.363V55.724H134.333V53.384ZM125.603 66.362C125.603 64.418 127.709 63.248 131.111 63.248C134.513 63.248 136.637 64.418 136.637 66.362C136.637 68.36 134.513 69.512 131.111 69.512C127.709 69.512 125.603 68.36 125.603 66.362ZM125.963 60.188H129.185V56.3H125.963V60.188ZM127.835 66.362C127.835 67.316 128.987 67.802 131.111 67.802C133.253 67.802 134.405 67.316 134.405 66.362C134.405 65.426 133.253 64.958 131.111 64.958C128.987 64.958 127.835 65.426 127.835 66.362ZM131.363 58.964H134.333V57.506H131.363V58.964ZM150.011 53.384H152.243V69.512H150.011V53.384ZM138.905 64.976C140.129 64.976 141.515 64.976 142.955 64.94V63.536C141.209 63.212 140.075 62.114 140.075 60.602C140.075 58.802 141.713 57.596 144.071 57.596C146.447 57.596 148.085 58.802 148.085 60.602C148.085 62.114 146.951 63.23 145.187 63.554V64.85C146.537 64.778 147.887 64.67 149.165 64.508L149.309 66.11C145.799 66.758 142.037 66.776 139.175 66.776L138.905 64.976ZM139.211 56.912V55.166H142.955V53.438H145.187V55.166H148.931V56.912H139.211ZM142.199 60.602C142.199 61.484 142.973 61.952 144.071 61.952C145.187 61.952 145.961 61.484 145.961 60.602C145.961 59.738 145.187 59.27 144.071 59.27C142.973 59.27 142.199 59.738 142.199 60.602ZM170.36 53.366H172.502V69.494H170.36V61.286H168.884V68.792H166.778V53.78H168.884V59.486H170.36V53.366ZM158.516 64.634C161.792 62.69 163.178 60.332 163.466 57.146H159.308V55.364H165.662C165.662 59.864 164.33 63.554 159.812 66.182L158.516 64.634ZM178.605 62.114H180.855V64.544C182.169 64.472 183.483 64.346 184.725 64.166L184.887 65.768C181.377 66.47 177.561 66.488 174.771 66.506L174.501 64.688C175.707 64.688 177.111 64.688 178.605 64.634V62.114ZM174.843 60.89C177.255 60.26 178.443 58.712 178.569 57.056H175.311V55.292H178.605V53.51H180.855V55.292H184.167V57.056H180.873C181.017 58.64 182.241 60.134 184.617 60.764L183.627 62.456C181.773 61.97 180.459 60.926 179.739 59.558C179.037 60.998 177.741 62.096 175.851 62.618L174.843 60.89ZM185.625 69.53V53.348H187.857V69.53H185.625ZM204.768 53.366H207V58.01H209.178V59.846H207V65.12H204.768V53.366ZM194.472 58.514C194.472 56.12 196.362 54.41 198.828 54.41C201.294 54.41 203.184 56.12 203.184 58.514C203.184 60.872 201.294 62.6 198.828 62.6C196.362 62.6 194.472 60.872 194.472 58.514ZM196.632 58.514C196.632 59.828 197.604 60.656 198.828 60.656C200.07 60.656 201.024 59.828 201.024 58.514C201.024 57.164 200.07 56.354 198.828 56.354C197.604 56.354 196.632 57.164 196.632 58.514ZM196.65 69.206V63.896H198.882V67.424H207.612V69.206H196.65ZM221.724 53.366H223.848V69.494H221.724V61.43H220.194V68.72H218.124V53.672H220.194V59.63H221.724V53.366ZM210.708 65.552V55.184H212.922V63.626C214.218 63.59 215.64 63.482 217.206 63.176L217.422 65.084C215.316 65.48 213.462 65.552 211.824 65.552H210.708Z" fill="#42464A"/>
</svg>
