<svg width="289" height="96" viewBox="0 0 289 96" fill="none" xmlns="http://www.w3.org/2000/svg">
<rect width="289" height="96" rx="12" fill="#F2F5F8"/>
<path d="M37.141 27.179V42.462H35.033V27.179H37.141ZM25.462 28.556H32.789V30.256H27.536V37.056C29.0093 37.0447 30.205 37.0107 31.123 36.954C32.041 36.8973 32.9477 36.7783 33.843 36.597L34.03 38.331C33.0553 38.535 32.0467 38.6653 31.004 38.722C29.9727 38.7787 28.556 38.807 26.754 38.807H25.462V28.556ZM47.4264 28.556V38.773H40.1504V28.556H47.4264ZM45.3694 37.107V30.222H42.2244V37.107H45.3694ZM49.8914 27.162H51.9994V42.445H49.8914V27.162ZM66.6708 28.488V29.967C66.6708 31.2703 66.6368 32.449 66.5688 33.503C66.5121 34.557 66.3535 35.798 66.0928 37.226L63.9678 37.005C64.2285 35.713 64.3928 34.557 64.4608 33.537C64.5288 32.5057 64.5628 31.3893 64.5628 30.188H55.6548V28.488H66.6708ZM54.2608 38.824H59.1738V33.588H61.2818V38.824H68.0308V40.558H54.2608V38.824ZM74.2612 41.136L79.0722 30.358L73.5132 30.375V28.59H81.1462L81.3162 30.358L76.5052 41.136H74.2612ZM95.3331 27.179V36.019H93.2421V35.526H90.5221V34.251H93.2421V27.179H95.3331ZM82.5661 32.585C84.5267 32.585 86.2834 32.568 87.8361 32.534C89.3887 32.4887 90.8847 32.3923 92.3241 32.245L92.4261 33.554C91.1567 33.7353 89.8081 33.86 88.3801 33.928V36.036H86.2721V34.013C85.4561 34.0243 84.2944 34.03 82.7871 34.03L82.5661 32.585ZM83.6031 29.695C83.6031 29.0037 83.9487 28.454 84.6401 28.046C85.3427 27.6267 86.2607 27.417 87.3941 27.417C88.5387 27.417 89.4567 27.6267 90.1481 28.046C90.8507 28.454 91.2021 29.0037 91.2021 29.695C91.2021 30.3863 90.8507 30.9417 90.1481 31.361C89.4567 31.769 88.5387 31.973 87.3941 31.973C86.2607 31.973 85.3427 31.769 84.6401 31.361C83.9487 30.9417 83.6031 30.3863 83.6031 29.695ZM84.7421 36.495H95.3331V40.014H86.8501V40.847H95.7241V42.309H84.7591V38.688H93.2591V37.923H84.7421V36.495ZM85.5581 29.695C85.5581 29.9897 85.7224 30.2163 86.0511 30.375C86.3797 30.5223 86.8274 30.596 87.3941 30.596C87.9721 30.596 88.4254 30.5223 88.7541 30.375C89.0827 30.2163 89.2471 29.9897 89.2471 29.695C89.2471 29.4117 89.0827 29.1907 88.7541 29.032C88.4254 28.8733 87.9721 28.794 87.3941 28.794C86.8274 28.794 86.3797 28.8733 86.0511 29.032C85.7224 29.1907 85.5581 29.4117 85.5581 29.695ZM105.065 35.866V37.498H111.372V35.866H113.463V42.275H102.991V35.866H105.065ZM101.359 33.163H111.083C111.321 32.007 111.44 30.783 111.44 29.491H103.059V27.808H113.497V29.015C113.497 29.8197 113.475 30.5223 113.429 31.123C113.395 31.7237 113.305 32.4037 113.157 33.163H115.146V34.863H101.359V33.163ZM111.372 40.575V39.113H105.065V40.575H111.372ZM121.93 27.893V29.338C121.93 30.358 122.23 31.2817 122.831 32.109C123.443 32.925 124.332 33.5143 125.5 33.877L124.48 35.526C123.641 35.254 122.921 34.8573 122.321 34.336C121.72 33.8147 121.244 33.197 120.893 32.483C120.53 33.265 120.037 33.9393 119.414 34.506C118.802 35.0727 118.059 35.4977 117.187 35.781L116.15 34.115C117.351 33.7297 118.258 33.1007 118.87 32.228C119.482 31.3553 119.788 30.392 119.788 29.338V27.893H121.93ZM118.462 36.954H128.832V42.428H126.707V38.637H118.462V36.954ZM126.707 27.196H128.832V36.274H126.707V27.196ZM146.945 27.179V31.565H149.002V33.299H146.945V38.28H144.837V27.179H146.945ZM135.113 32.041C135.113 31.3043 135.295 30.6413 135.657 30.052C136.02 29.4627 136.513 29.0037 137.136 28.675C137.76 28.335 138.457 28.165 139.227 28.165C139.998 28.165 140.695 28.335 141.318 28.675C141.942 29.0037 142.435 29.4627 142.797 30.052C143.16 30.6413 143.341 31.3043 143.341 32.041C143.341 32.7663 143.16 33.4237 142.797 34.013C142.435 34.6023 141.942 35.067 141.318 35.407C140.695 35.7357 139.998 35.9 139.227 35.9C138.457 35.9 137.76 35.7357 137.136 35.407C136.513 35.067 136.02 34.6023 135.657 34.013C135.295 33.4237 135.113 32.7663 135.113 32.041ZM137.153 32.041C137.153 32.653 137.352 33.146 137.748 33.52C138.145 33.8827 138.638 34.064 139.227 34.064C139.828 34.064 140.321 33.8827 140.706 33.52C141.103 33.146 141.301 32.653 141.301 32.041C141.301 31.4177 141.103 30.9247 140.706 30.562C140.321 30.188 139.828 30.001 139.227 30.001C138.638 30.001 138.145 30.188 137.748 30.562C137.352 30.9247 137.153 31.4177 137.153 32.041ZM137.17 37.124H139.278V40.456H147.523V42.139H137.17V37.124ZM162.858 27.179V42.411H160.852V34.795H159.407V41.68H157.452V27.468H159.407V33.095H160.852V27.179H162.858ZM150.448 28.896H152.539V36.869C153.989 36.8237 155.338 36.682 156.585 36.444L156.789 38.246C155.225 38.5407 153.462 38.688 151.502 38.688H150.448V28.896Z" fill="#42464A"/>
<path d="M222.79 38.852C224.19 38.852 225.142 37.27 225.142 34.946C225.142 32.608 224.19 31.04 222.79 31.04C221.376 31.04 220.424 32.608 220.424 34.946C220.424 37.27 221.376 38.852 222.79 38.852ZM218.968 34.946C218.968 31.908 220.55 29.752 222.79 29.752C225.03 29.752 226.598 31.908 226.598 34.946C226.598 37.984 225.03 40.126 222.79 40.126C220.55 40.126 218.968 37.984 218.968 34.946ZM231.355 38.866C232.573 38.866 233.427 37.998 233.427 36.752C233.427 35.506 232.573 34.624 231.355 34.624C230.165 34.624 229.311 35.506 229.311 36.752C229.311 37.998 230.165 38.866 231.355 38.866ZM227.855 36.752C227.855 36.01 228.121 35.352 228.415 34.82L231.229 29.836H232.895L230.851 33.406C231.033 33.364 231.215 33.35 231.411 33.35C233.455 33.364 234.883 34.764 234.883 36.752C234.883 38.74 233.441 40.14 231.369 40.14C229.311 40.14 227.855 38.74 227.855 36.752ZM243.832 29.192L240.85 40.784H239.394L242.39 29.192H243.832ZM254.013 34.778C254.923 35.31 255.483 36.304 255.483 37.158C255.483 38.894 254.069 40.112 252.053 40.112C250.037 40.112 248.609 38.866 248.609 37.074H250.065C250.065 38.11 250.891 38.824 252.053 38.824C253.243 38.824 254.069 38.11 254.069 37.088C254.069 36.08 253.243 35.38 252.081 35.38H251.353V34.162H252.081C253.159 34.162 253.929 33.518 253.929 32.608C253.929 31.698 253.187 31.068 252.137 31.068C251.101 31.068 250.373 31.712 250.373 32.622H248.917C248.917 30.942 250.247 29.78 252.137 29.78C254.013 29.78 255.343 30.914 255.343 32.538C255.343 33.322 254.839 34.246 254.013 34.778ZM260.565 38.852C261.965 38.852 262.917 37.27 262.917 34.946C262.917 32.608 261.965 31.04 260.565 31.04C259.151 31.04 258.199 32.608 258.199 34.946C258.199 37.27 259.151 38.852 260.565 38.852ZM256.743 34.946C256.743 31.908 258.325 29.752 260.565 29.752C262.805 29.752 264.373 31.908 264.373 34.946C264.373 37.984 262.805 40.126 260.565 40.126C258.325 40.126 256.743 37.984 256.743 34.946Z" fill="#787F8A"/>
<path d="M24.924 60.264H29.76V61.308H26.208V66.312C27.9 66.3 29.064 66.24 30.384 66L30.516 67.044C29.028 67.32 27.744 67.38 25.764 67.38H24.924V60.264ZM29.208 64.104V63.06H32.004V59.292H33.288V69.984H32.004V64.104H29.208ZM44.7179 59.292H46.0139V61.452H47.4899V62.508H46.0139V64.656H44.7179V59.292ZM37.7939 62.028C37.7939 60.624 38.9939 59.628 40.5899 59.628C42.2099 59.628 43.4099 60.624 43.4099 62.028C43.4099 63.444 42.2099 64.428 40.5899 64.428C38.9939 64.428 37.7939 63.444 37.7939 62.028ZM39.0419 62.028C39.0419 62.856 39.7019 63.396 40.5899 63.396C41.5019 63.396 42.1499 62.856 42.1499 62.028C42.1499 61.212 41.5019 60.672 40.5899 60.672C39.7019 60.672 39.0419 61.212 39.0419 62.028ZM39.0899 66.12V65.112H46.0139V67.908H40.3859V68.808H46.3499V69.828H39.1139V66.96H44.7299V66.12H39.0899ZM51.0062 60.06C52.6022 60.06 53.7542 61.524 53.7542 63.828C53.7542 66.144 52.6022 67.62 51.0062 67.62C49.4102 67.62 48.2462 66.144 48.2462 63.828C48.2462 61.524 49.4102 60.06 51.0062 60.06ZM49.4942 63.828C49.4942 65.484 50.1062 66.444 51.0062 66.444C51.9062 66.444 52.5182 65.484 52.5182 63.828C52.5182 62.196 51.9062 61.236 51.0062 61.236C50.1062 61.236 49.4942 62.196 49.4942 63.828ZM55.1582 69.96V59.292H56.4542V63.42H58.0742V64.488H56.4542V69.96H55.1582ZM58.6385 67.608H62.8145V65.496H59.7185V60H60.9905V61.752H65.9345V60H67.2065V65.496H64.0985V67.608H68.2985V68.664H58.6385V67.608ZM60.9905 64.476H65.9345V62.772H60.9905V64.476ZM76.6508 59.292H77.9468V69.96H76.6508V59.292ZM69.1868 67.056C71.9708 65.712 73.2548 63.888 73.4708 61.44H69.7268V60.408H74.7908C74.7908 63.6 73.5668 66.288 69.8708 68.076L69.1868 67.056Z" fill="#0076FF"/>
<path d="M85.8078 67.8047C85.5651 67.5602 85.5658 67.1655 85.8094 66.9219L88.09 64.6413C88.1681 64.5632 88.1681 64.4367 88.0902 64.3586L85.8087 62.0721C85.5656 61.8286 85.5659 61.4342 85.8092 61.1909V61.1909C86.0526 60.9474 86.4474 60.9474 86.6909 61.1909L89.2929 63.7929C89.6834 64.1834 89.6834 64.8166 89.2929 65.2071L86.6938 67.8062C86.449 68.0511 86.0518 68.0504 85.8078 67.8047V67.8047Z" fill="#0076FF"/>
</svg>
