<svg width="289" height="92" viewBox="0 0 289 92" fill="none" xmlns="http://www.w3.org/2000/svg">
<path d="M65.0478 3.104H66.5038V17.248H65.0478V3.104ZM55.8318 13.776V4.432H62.5358V5.648H57.2718V12.544C59.9438 12.544 61.6718 12.464 63.6558 12.08L63.7998 13.312C61.7038 13.712 59.8798 13.776 56.9838 13.776H55.8318ZM69.6881 4.464H76.2481V13.728H69.6881V4.464ZM71.1281 12.544H74.8241V5.632H71.1281V12.544ZM79.0321 17.248V3.088H80.4881V17.248H79.0321ZM84.2485 4.464H94.2005V5.856C94.2005 7.6 94.2005 9.552 93.6885 12.432L92.2165 12.272C92.7445 9.536 92.7445 7.552 92.7445 5.856V5.664H84.2485V4.464ZM82.9045 15.312V14.096H87.7685V9.104H89.2245V14.096H95.6725V15.312H82.9045ZM107.513 3.104H108.905V17.216H107.513V3.104ZM97.0489 9.2C97.0489 6.144 98.2329 4.24 100.057 4.24C101.753 4.24 102.905 5.872 103.065 8.528H104.681V3.408H106.057V16.528H104.681V9.728H103.065C102.937 12.496 101.785 14.176 100.057 14.176C98.2329 14.176 97.0489 12.272 97.0489 9.2ZM98.3769 9.2C98.3769 11.472 99.0169 12.8 100.057 12.8C101.113 12.8 101.753 11.472 101.753 9.2C101.753 6.944 101.113 5.616 100.057 5.616C99.0169 5.616 98.3769 6.944 98.3769 9.2ZM124.689 3.12H126.145V10.688H124.689V3.12ZM114.849 7.024C114.849 5.104 116.417 3.776 118.561 3.776C120.705 3.776 122.273 5.104 122.273 7.024C122.273 8.96 120.705 10.304 118.561 10.304C116.417 10.304 114.849 8.96 114.849 7.024ZM116.273 7.024C116.273 8.256 117.233 9.072 118.561 9.072C119.889 9.072 120.849 8.256 120.849 7.024C120.849 5.808 119.889 4.976 118.561 4.976C117.233 4.976 116.273 5.808 116.273 7.024ZM116.993 17.04V11.376H118.449V12.976H124.705V11.376H126.145V17.04H116.993ZM118.449 15.872H124.705V14.128H118.449V15.872ZM128.577 4.544H132.017V3.024H133.473V4.544H136.913V5.712H128.577V4.544ZM129.345 8.944C129.345 7.392 130.721 6.368 132.737 6.368C134.769 6.368 136.145 7.392 136.145 8.944C136.145 10.496 134.769 11.488 132.737 11.488C130.721 11.488 129.345 10.496 129.345 8.944ZM130.321 13.84V12.656H139.537V17.232H138.065V13.84H130.321ZM130.737 8.944C130.737 9.808 131.537 10.384 132.737 10.384C133.937 10.384 134.737 9.808 134.737 8.944C134.737 8.048 133.937 7.504 132.737 7.504C131.537 7.504 130.737 8.048 130.737 8.944ZM138.065 11.936V3.12H139.537V6.944H141.569V8.16H139.537V11.936H138.065ZM151.986 3.12H153.442V8.848H155.682V10.064H153.442V17.232H151.986V3.12ZM142.45 6.512V5.328H145.906V3.296H147.394V5.328H150.77V6.512H142.45ZM143.202 10.864C143.202 8.944 144.674 7.6 146.658 7.6C148.674 7.6 150.13 8.944 150.13 10.864C150.13 12.784 148.674 14.128 146.658 14.128C144.674 14.128 143.202 12.784 143.202 10.864ZM144.594 10.864C144.594 12.096 145.458 12.928 146.658 12.928C147.858 12.928 148.738 12.096 148.738 10.864C148.738 9.648 147.858 8.8 146.658 8.8C145.458 8.8 144.594 9.648 144.594 10.864ZM160.146 4.304H161.618V6.704C161.618 9.296 163.17 11.904 165.314 12.88L164.45 14.048C162.834 13.264 161.57 11.664 160.914 9.712C160.258 11.792 158.962 13.504 157.282 14.32L156.402 13.12C158.578 12.112 160.146 9.408 160.146 6.704V4.304ZM166.61 17.248V3.088H168.066V17.248H166.61ZM176.706 4.128C176.706 5.184 176.53 6.16 176.178 7.04H178.226V3.408H179.586V11.024H178.226V8.224H175.57C174.674 9.616 173.266 10.72 171.346 11.552L170.61 10.464C173.394 9.344 174.914 7.616 175.186 5.328H171.234V4.128H176.706ZM171.282 16.096C173.074 15.44 174.082 13.936 174.082 12.56V11.712H175.49V12.56C175.49 13.808 176.066 15.088 177.33 15.856C178.626 15.008 179.25 13.632 179.25 12.56V11.712H180.674V12.56C180.674 14.048 181.65 15.504 183.458 16.096L182.754 17.168C181.378 16.656 180.434 15.696 179.938 14.512C179.522 15.664 178.69 16.736 177.378 17.28C176.034 16.752 175.186 15.744 174.754 14.576C174.258 15.712 173.33 16.656 172.002 17.168L171.282 16.096ZM181.026 11.232V3.104H182.434V11.232H181.026ZM186.067 11.568H187.507V13.104H194.131V11.568H195.571V17.04H186.067V11.568ZM184.483 10.656V9.488H197.235V10.656H184.483ZM185.187 7.424C187.875 7.072 190.115 5.552 190.115 3.84V3.264H191.619V3.84C191.619 5.52 193.875 7.088 196.531 7.424L196.003 8.56C193.763 8.24 191.779 7.168 190.867 5.648C189.971 7.168 187.971 8.24 185.731 8.56L185.187 7.424ZM187.507 15.872H194.131V14.224H187.507V15.872ZM208.627 3.104H210.067V17.216H208.627V3.104ZM199.315 13.616V4.48H200.771V12.368C202.803 12.352 204.963 12.192 207.235 11.712L207.427 12.944C204.979 13.456 202.707 13.616 200.515 13.616H199.315ZM222.115 3.104H223.555V8.848H225.619V10.064H223.555V17.216H222.115V3.104ZM212.339 13.264C214.387 11.12 215.155 8.656 215.283 5.808H212.835V4.608H216.659C216.659 8.128 216.035 11.36 213.491 14.112L212.339 13.264ZM216.355 14.208C218.435 11.744 219.043 8.816 219.155 5.808H217.123V4.608H220.531C220.531 8.176 220.083 11.952 217.523 15.024L216.355 14.208ZM229.94 16.288C229.412 16.288 229.044 15.92 229.044 15.376C229.044 14.864 229.412 14.496 229.94 14.496C230.468 14.496 230.82 14.864 230.82 15.376C230.82 15.92 230.468 16.288 229.94 16.288ZM226.596 6.608C227.172 5.072 228.66 4 230.212 4C232.42 4 233.892 5.472 233.796 7.552C233.732 8.64 233.172 9.696 231.684 10.816C230.852 11.424 230.644 11.856 230.66 13.056L229.22 13.088C229.204 11.472 229.652 10.512 230.82 9.664C232.02 8.768 232.308 8.192 232.356 7.488C232.42 6.272 231.524 5.44 230.212 5.44C229.252 5.44 228.324 6.128 227.94 7.12L226.596 6.608Z" fill="#42464A"/>
<rect y="40" width="136" height="52" rx="16" fill="#F86060"/>
<path d="M51.3754 60.08C53.5034 60.08 55.0394 62.032 55.0394 65.104C55.0394 68.192 53.5034 70.16 51.3754 70.16C49.2474 70.16 47.6954 68.192 47.6954 65.104C47.6954 62.032 49.2474 60.08 51.3754 60.08ZM49.3594 65.104C49.3594 67.312 50.1754 68.592 51.3754 68.592C52.5754 68.592 53.3914 67.312 53.3914 65.104C53.3914 62.928 52.5754 61.648 51.3754 61.648C50.1754 61.648 49.3594 62.928 49.3594 65.104ZM56.9114 73.28V59.056H58.6394V64.56H60.7994V65.984H58.6394V73.28H56.9114ZM71.6158 59.056H73.3278V73.28H71.6158V59.056ZM62.3518 69.696V60.416H64.0798V68.24C66.0478 68.208 68.1438 68.048 70.3518 67.6L70.5598 69.04C68.0958 69.536 65.7758 69.696 63.5998 69.696H62.3518ZM75.5362 70.144H78.5122V66.496C77.3922 65.84 76.7202 64.848 76.7202 63.584C76.7202 61.296 78.9282 59.824 81.9682 59.824C85.0242 59.824 87.2162 61.296 87.2162 63.584C87.2162 64.832 86.5442 65.84 85.4402 66.496V70.144H88.4162V71.536H75.5362V70.144ZM78.4002 63.584C78.4002 65.072 79.8562 65.984 81.9682 65.984C84.0642 65.984 85.5362 65.072 85.5362 63.584C85.5362 62.096 84.0642 61.184 81.9682 61.184C79.8562 61.184 78.4002 62.096 78.4002 63.584ZM80.2242 70.144H83.7122V67.136C83.1682 67.248 82.5922 67.312 81.9682 67.312C81.3442 67.312 80.7682 67.248 80.2242 67.136V70.144Z" fill="white"/>
<rect x="153" y="40" width="136" height="52" rx="16" fill="#3D92F4"/>
<path d="M215.16 60.496H216.856V68.32C218.248 68.288 219.528 68.208 221 67.904L221.224 69.344C219.448 69.728 217.88 69.792 216.12 69.792H215.16V60.496ZM219.112 65.072V63.664H222.072V59.344H223.688V72.592H222.072V65.072H219.112ZM225.096 73.28V59.056H226.728V73.28H225.096Z" fill="white"/>
</svg>
