<svg width="289" height="92" viewBox="0 0 289 92" fill="none" xmlns="http://www.w3.org/2000/svg">
<path d="M66.5038 3.104V17.248H65.0478V3.104H66.5038ZM55.8318 4.432H62.5358V5.648H57.2718V12.544C58.7011 12.544 59.8851 12.512 60.8238 12.448C61.7624 12.384 62.7064 12.2613 63.6558 12.08L63.7998 13.312C62.8078 13.504 61.8158 13.632 60.8238 13.696C59.8424 13.7493 58.5624 13.776 56.9838 13.776H55.8318V4.432ZM76.2481 4.464V13.728H69.6881V4.464H76.2481ZM74.8241 12.544V5.632H71.1281V12.544H74.8241ZM79.0321 3.088H80.4881V17.248H79.0321V3.088ZM94.2005 4.464V5.856C94.2005 7.05067 94.1685 8.128 94.1045 9.088C94.0512 10.048 93.9125 11.1627 93.6885 12.432L92.2165 12.272C92.4512 11.0667 92.5952 9.98933 92.6485 9.04C92.7125 8.09067 92.7445 7.02933 92.7445 5.856V5.664H84.2485V4.464H94.2005ZM82.9045 14.096H87.7685V9.104H89.2245V14.096H95.6725V15.312H82.9045V14.096ZM108.905 3.104V17.216H107.513V3.104H108.905ZM97.0489 9.2C97.0489 8.19733 97.1715 7.32267 97.4169 6.576C97.6622 5.81867 98.0089 5.24267 98.4569 4.848C98.9155 4.44267 99.4489 4.24 100.057 4.24C100.91 4.24 101.604 4.624 102.137 5.392C102.681 6.16 102.99 7.20533 103.065 8.528H104.681V3.408H106.057V16.528H104.681V9.728H103.065C103.001 11.104 102.697 12.192 102.153 12.992C101.62 13.7813 100.921 14.176 100.057 14.176C99.4489 14.176 98.9155 13.9733 98.4569 13.568C98.0089 13.1627 97.6622 12.5867 97.4169 11.84C97.1715 11.0933 97.0489 10.2133 97.0489 9.2ZM98.3769 9.2C98.3769 10.3307 98.5262 11.216 98.8249 11.856C99.1235 12.4853 99.5342 12.8 100.057 12.8C100.59 12.8 101.006 12.4853 101.305 11.856C101.604 11.216 101.753 10.3307 101.753 9.2C101.753 8.08 101.604 7.20533 101.305 6.576C101.006 5.936 100.59 5.616 100.057 5.616C99.5342 5.616 99.1235 5.936 98.8249 6.576C98.5262 7.20533 98.3769 8.08 98.3769 9.2ZM126.145 3.12V10.688H124.689V3.12H126.145ZM114.849 7.024C114.849 6.39467 115.009 5.83467 115.329 5.344C115.649 4.84267 116.091 4.45867 116.657 4.192C117.222 3.91467 117.857 3.776 118.561 3.776C119.265 3.776 119.899 3.91467 120.465 4.192C121.03 4.45867 121.473 4.84267 121.793 5.344C122.113 5.83467 122.273 6.39467 122.273 7.024C122.273 7.664 122.113 8.23467 121.793 8.736C121.473 9.22667 121.03 9.61067 120.465 9.888C119.899 10.1653 119.265 10.304 118.561 10.304C117.857 10.304 117.222 10.1653 116.657 9.888C116.091 9.61067 115.649 9.22667 115.329 8.736C115.009 8.23467 114.849 7.664 114.849 7.024ZM116.273 7.024C116.273 7.632 116.486 8.128 116.913 8.512C117.339 8.88533 117.889 9.072 118.561 9.072C119.233 9.072 119.782 8.88533 120.209 8.512C120.635 8.128 120.849 7.632 120.849 7.024C120.849 6.416 120.635 5.92533 120.209 5.552C119.782 5.168 119.233 4.976 118.561 4.976C117.889 4.976 117.339 5.168 116.913 5.552C116.486 5.92533 116.273 6.416 116.273 7.024ZM116.993 11.376H118.449V12.976H124.705V11.376H126.145V17.04H116.993V11.376ZM124.705 15.872V14.128H118.449V15.872H124.705ZM132.017 4.544V3.024H133.473V4.544H136.913V5.712H128.577V4.544H132.017ZM129.345 8.944C129.345 8.432 129.484 7.984 129.761 7.6C130.049 7.20533 130.449 6.90133 130.961 6.688C131.484 6.47467 132.076 6.368 132.737 6.368C133.409 6.368 134.001 6.47467 134.513 6.688C135.036 6.90133 135.436 7.20533 135.713 7.6C136.001 7.984 136.145 8.432 136.145 8.944C136.145 9.712 135.83 10.3307 135.201 10.8C134.582 11.2587 133.761 11.488 132.737 11.488C131.724 11.488 130.902 11.2587 130.273 10.8C129.654 10.3307 129.345 9.712 129.345 8.944ZM130.321 12.656H139.537V17.232H138.065V13.84H130.321V12.656ZM130.737 8.944C130.737 9.37067 130.918 9.71733 131.281 9.984C131.654 10.2507 132.14 10.384 132.737 10.384C133.334 10.384 133.814 10.2507 134.177 9.984C134.55 9.71733 134.737 9.37067 134.737 8.944C134.737 8.496 134.556 8.144 134.193 7.888C133.83 7.632 133.345 7.504 132.737 7.504C132.129 7.504 131.644 7.632 131.281 7.888C130.918 8.144 130.737 8.496 130.737 8.944ZM138.065 3.12H139.537V6.944H141.569V8.16H139.537V11.936H138.065V3.12ZM153.442 3.12V8.848H155.682V10.064H153.442V17.232H151.986V3.12H153.442ZM142.45 5.328H145.906V3.296H147.394V5.328H150.77V6.512H142.45V5.328ZM143.202 10.864C143.202 10.2347 143.351 9.67467 143.65 9.184C143.948 8.68267 144.359 8.29333 144.882 8.016C145.415 7.73867 146.007 7.6 146.658 7.6C147.319 7.6 147.911 7.73867 148.434 8.016C148.967 8.29333 149.383 8.68267 149.682 9.184C149.98 9.67467 150.13 10.2347 150.13 10.864C150.13 11.4933 149.98 12.0587 149.682 12.56C149.383 13.0507 148.967 13.4347 148.434 13.712C147.911 13.9893 147.319 14.128 146.658 14.128C146.007 14.128 145.415 13.9893 144.882 13.712C144.359 13.4347 143.948 13.0507 143.65 12.56C143.351 12.0587 143.202 11.4933 143.202 10.864ZM144.594 10.864C144.594 11.472 144.786 11.968 145.17 12.352C145.554 12.736 146.05 12.928 146.658 12.928C147.266 12.928 147.762 12.736 148.146 12.352C148.54 11.968 148.738 11.472 148.738 10.864C148.738 10.256 148.54 9.76 148.146 9.376C147.762 8.992 147.266 8.8 146.658 8.8C146.06 8.8 145.564 8.992 145.17 9.376C144.786 9.76 144.594 10.256 144.594 10.864ZM161.618 4.304V6.704C161.618 7.55733 161.778 8.4 162.098 9.232C162.418 10.0533 162.855 10.7893 163.41 11.44C163.975 12.08 164.61 12.56 165.314 12.88L164.45 14.048C163.65 13.664 162.941 13.0933 162.322 12.336C161.714 11.568 161.245 10.6933 160.914 9.712C160.583 10.768 160.103 11.7013 159.474 12.512C158.845 13.312 158.114 13.9147 157.282 14.32L156.402 13.12C157.117 12.7893 157.757 12.2933 158.322 11.632C158.898 10.96 159.346 10.192 159.666 9.328C159.986 8.464 160.146 7.58933 160.146 6.704V4.304H161.618ZM166.61 3.088H168.066V17.248H166.61V3.088ZM176.706 4.128C176.706 5.184 176.53 6.15467 176.178 7.04H178.226V3.408H179.586V11.024H178.226V8.224H175.57C174.674 9.61067 173.266 10.72 171.346 11.552L170.61 10.464C173.384 9.344 174.909 7.632 175.186 5.328H171.234V4.128H176.706ZM171.282 16.096C172.146 15.776 172.829 15.2853 173.33 14.624C173.832 13.9627 174.082 13.2747 174.082 12.56V11.712H175.49V12.56C175.49 13.2107 175.645 13.8293 175.954 14.416C176.264 15.0027 176.722 15.4827 177.33 15.856C177.949 15.4507 178.424 14.944 178.754 14.336C179.085 13.728 179.25 13.136 179.25 12.56V11.712H180.674V12.56C180.674 13.328 180.92 14.0373 181.41 14.688C181.901 15.3387 182.584 15.808 183.458 16.096L182.754 17.168C182.082 16.9227 181.506 16.5707 181.026 16.112C180.557 15.6533 180.194 15.12 179.938 14.512C179.714 15.12 179.389 15.6693 178.962 16.16C178.536 16.6507 178.008 17.024 177.378 17.28C176.728 17.024 176.184 16.6613 175.746 16.192C175.309 15.7227 174.978 15.184 174.754 14.576C174.498 15.1627 174.136 15.68 173.666 16.128C173.208 16.576 172.653 16.9227 172.002 17.168L171.282 16.096ZM181.026 3.104H182.434V11.232H181.026V3.104ZM187.507 11.568V13.104H194.131V11.568H195.571V17.04H186.067V11.568H187.507ZM184.483 9.488H197.235V10.656H184.483V9.488ZM185.187 7.424C186.083 7.30667 186.904 7.072 187.651 6.72C188.408 6.368 189.005 5.94133 189.443 5.44C189.891 4.928 190.115 4.39467 190.115 3.84V3.264H191.619V3.84C191.619 4.384 191.843 4.912 192.291 5.424C192.739 5.936 193.336 6.37333 194.083 6.736C194.84 7.088 195.656 7.31733 196.531 7.424L196.003 8.56C194.872 8.4 193.843 8.064 192.915 7.552C191.997 7.02933 191.315 6.39467 190.867 5.648C190.429 6.39467 189.747 7.02933 188.819 7.552C187.901 8.064 186.872 8.4 185.731 8.56L185.187 7.424ZM194.131 15.872V14.224H187.507V15.872H194.131ZM210.067 3.104V17.216H208.627V3.104H210.067ZM199.315 4.48H200.771V12.368C203.096 12.3467 205.251 12.128 207.235 11.712L207.427 12.944C205.283 13.392 202.979 13.616 200.515 13.616H199.315V4.48ZM223.555 3.104V8.848H225.619V10.064H223.555V17.216H222.115V3.104H223.555ZM212.339 13.264C213.321 12.24 214.041 11.12 214.499 9.904C214.958 8.67733 215.219 7.312 215.283 5.808H212.835V4.608H216.659C216.659 6.56 216.425 8.30933 215.955 9.856C215.497 11.4027 214.675 12.8213 213.491 14.112L212.339 13.264ZM216.355 14.208C217.326 13.056 218.019 11.7867 218.435 10.4C218.851 9.01333 219.091 7.48267 219.155 5.808H217.123V4.608H220.531C220.531 6.72 220.323 8.63467 219.907 10.352C219.491 12.0587 218.697 13.616 217.523 15.024L216.355 14.208ZM229.94 16.288C229.673 16.288 229.454 16.2027 229.284 16.032C229.124 15.8613 229.044 15.6427 229.044 15.376C229.044 15.12 229.124 14.912 229.284 14.752C229.454 14.5813 229.673 14.496 229.94 14.496C230.206 14.496 230.42 14.5813 230.58 14.752C230.74 14.912 230.82 15.12 230.82 15.376C230.82 15.6533 230.74 15.872 230.58 16.032C230.42 16.2027 230.206 16.288 229.94 16.288ZM226.596 6.608C226.884 5.84 227.364 5.216 228.036 4.736C228.708 4.24533 229.433 4 230.212 4C230.916 4 231.54 4.144 232.084 4.432C232.628 4.70933 233.049 5.104 233.348 5.616C233.646 6.128 233.796 6.70933 233.796 7.36C233.796 7.968 233.63 8.55467 233.3 9.12C232.98 9.68533 232.441 10.2507 231.684 10.816C231.268 11.1253 230.99 11.4293 230.852 11.728C230.713 12.016 230.649 12.4587 230.66 13.056L229.22 13.088C229.209 12.2773 229.326 11.6107 229.572 11.088C229.817 10.5653 230.233 10.0907 230.82 9.664C231.417 9.216 231.822 8.82133 232.036 8.48C232.249 8.13867 232.356 7.76533 232.356 7.36C232.356 6.79467 232.153 6.336 231.748 5.984C231.353 5.62133 230.841 5.44 230.212 5.44C229.732 5.44 229.278 5.59467 228.852 5.904C228.436 6.21333 228.132 6.61867 227.94 7.12L226.596 6.608Z" fill="#42464A"/>
<rect y="40" width="136" height="52" rx="16" fill="#3D92F4"/>
<path d="M41.4713 60.544H44.3833V59.088H46.1113V60.544H49.0553V61.888H46.1113C46.1273 63.136 47.2793 64.24 49.3433 64.672L48.6553 66C47.0553 65.664 45.9033 64.88 45.2953 63.872C44.6713 64.992 43.5033 65.824 41.8233 66.192L41.1193 64.864C43.2473 64.416 44.3833 63.216 44.3993 61.888H41.4713V60.544ZM40.5753 66.96C43.1993 66.96 46.7193 66.944 49.7433 66.528L49.8553 67.792C48.6233 68 47.3593 68.144 46.1113 68.224V72.864H44.3833V68.32C43.0873 68.368 41.8713 68.384 40.7833 68.384L40.5753 66.96ZM50.6553 73.28V59.056H52.3513V73.28H50.6553ZM54.5596 70.112H60.0956V66.832H61.7916V70.112H67.4396V71.52H54.5596V70.112ZM54.9596 65.728C57.8716 65.232 60.0316 63.088 60.0316 60.96V59.904H61.8556V60.96C61.8556 63.12 64.0156 65.232 66.9436 65.728L66.2076 67.168C63.8236 66.704 61.8716 65.312 60.9436 63.44C59.9996 65.296 58.0476 66.704 55.6636 67.168L54.9596 65.728ZM77.888 59.056H79.616V64.736H81.776V66.16H79.616V73.28H77.888V59.056ZM68.464 62.608V61.232H71.808V59.264H73.552V61.232H76.816V62.608H68.464ZM69.136 66.912C69.136 64.96 70.656 63.584 72.688 63.584C74.736 63.584 76.224 64.96 76.224 66.912C76.224 68.88 74.736 70.256 72.688 70.256C70.656 70.256 69.136 68.88 69.136 66.912ZM70.784 66.912C70.784 68.096 71.568 68.848 72.688 68.848C73.776 68.848 74.576 68.096 74.576 66.912C74.576 65.744 73.776 64.992 72.688 64.992C71.568 64.992 70.784 65.744 70.784 66.912ZM92.5604 59.056H94.2884V73.28H92.5604V59.056ZM82.6084 69.408C86.3204 67.616 88.0324 65.184 88.3204 61.92H83.3284V60.544H90.0804C90.0804 64.8 88.4484 68.384 83.5204 70.768L82.6084 69.408Z" fill="white"/>
<rect x="153" y="40" width="136" height="52" rx="16" fill="#3D92F4"/>
<path d="M203.591 59.056H205.303V66.688H203.591V59.056ZM193.831 62.992C193.831 61.056 195.431 59.696 197.623 59.696C199.799 59.696 201.415 61.056 201.415 62.992C201.415 64.96 199.799 66.32 197.623 66.32C195.431 66.32 193.831 64.96 193.831 62.992ZM195.511 62.992C195.511 64.16 196.391 64.896 197.623 64.896C198.855 64.896 199.735 64.16 199.735 62.992C199.735 61.856 198.855 61.104 197.623 61.104C196.391 61.104 195.511 61.856 195.511 62.992ZM195.991 73.104V67.36H197.687V68.848H203.607V67.36H205.303V73.104H195.991ZM197.687 71.728H203.607V70.176H197.687V71.728ZM207.576 60.416H210.92V58.976H212.632V60.416H215.96V61.776H207.576V60.416ZM208.328 64.96C208.328 63.392 209.736 62.336 211.768 62.336C213.816 62.336 215.24 63.392 215.24 64.96C215.24 66.512 213.816 67.536 211.768 67.536C209.736 67.536 208.328 66.512 208.328 64.96ZM209.32 70.016V68.624H218.696V73.28H216.968V70.016H209.32ZM209.96 64.96C209.96 65.76 210.696 66.24 211.768 66.24C212.856 66.24 213.576 65.76 213.576 64.96C213.576 64.128 212.856 63.664 211.768 63.664C210.696 63.664 209.96 64.128 209.96 64.96ZM216.968 67.968V59.056H218.696V62.832H220.664V64.256H218.696V67.968H216.968ZM230.888 59.056H232.616V64.736H234.776V66.16H232.616V73.28H230.888V59.056ZM221.464 62.608V61.232H224.808V59.264H226.552V61.232H229.816V62.608H221.464ZM222.136 66.912C222.136 64.96 223.656 63.584 225.688 63.584C227.736 63.584 229.224 64.96 229.224 66.912C229.224 68.88 227.736 70.256 225.688 70.256C223.656 70.256 222.136 68.88 222.136 66.912ZM223.784 66.912C223.784 68.096 224.568 68.848 225.688 68.848C226.776 68.848 227.576 68.096 227.576 66.912C227.576 65.744 226.776 64.992 225.688 64.992C224.568 64.992 223.784 65.744 223.784 66.912ZM245.56 59.056H247.288V73.28H245.56V59.056ZM235.608 69.408C239.32 67.616 241.032 65.184 241.32 61.92H236.328V60.544H243.08C243.08 64.8 241.448 68.384 236.52 70.768L235.608 69.408Z" fill="white"/>
</svg>
