<svg width="289" height="96" viewBox="0 0 289 96" fill="none" xmlns="http://www.w3.org/2000/svg">
<rect width="289" height="96" rx="12" fill="#42464A"/>
<path d="M37.141 27.179V42.462H35.033V27.179H37.141ZM25.462 28.556H32.789V30.256H27.536V37.056C29.0093 37.0447 30.205 37.0107 31.123 36.954C32.041 36.8973 32.9477 36.7783 33.843 36.597L34.03 38.331C33.0553 38.535 32.0467 38.6653 31.004 38.722C29.9727 38.7787 28.556 38.807 26.754 38.807H25.462V28.556ZM47.4264 28.556V38.773H40.1504V28.556H47.4264ZM45.3694 37.107V30.222H42.2244V37.107H45.3694ZM49.8914 27.162H51.9994V42.445H49.8914V27.162ZM66.6708 28.488V29.967C66.6708 31.2703 66.6368 32.449 66.5688 33.503C66.5121 34.557 66.3535 35.798 66.0928 37.226L63.9678 37.005C64.2285 35.713 64.3928 34.557 64.4608 33.537C64.5288 32.5057 64.5628 31.3893 64.5628 30.188H55.6548V28.488H66.6708ZM54.2608 38.824H59.1738V33.588H61.2818V38.824H68.0308V40.558H54.2608V38.824ZM74.2612 41.136L79.0722 30.358L73.5132 30.375V28.59H81.1462L81.3162 30.358L76.5052 41.136H74.2612ZM95.3331 27.179V36.019H93.2421V35.526H90.5221V34.251H93.2421V27.179H95.3331ZM82.5661 32.585C84.5267 32.585 86.2834 32.568 87.8361 32.534C89.3887 32.4887 90.8847 32.3923 92.3241 32.245L92.4261 33.554C91.1567 33.7353 89.8081 33.86 88.3801 33.928V36.036H86.2721V34.013C85.4561 34.0243 84.2944 34.03 82.7871 34.03L82.5661 32.585ZM83.6031 29.695C83.6031 29.0037 83.9487 28.454 84.6401 28.046C85.3427 27.6267 86.2607 27.417 87.3941 27.417C88.5387 27.417 89.4567 27.6267 90.1481 28.046C90.8507 28.454 91.2021 29.0037 91.2021 29.695C91.2021 30.3863 90.8507 30.9417 90.1481 31.361C89.4567 31.769 88.5387 31.973 87.3941 31.973C86.2607 31.973 85.3427 31.769 84.6401 31.361C83.9487 30.9417 83.6031 30.3863 83.6031 29.695ZM84.7421 36.495H95.3331V40.014H86.8501V40.847H95.7241V42.309H84.7591V38.688H93.2591V37.923H84.7421V36.495ZM85.5581 29.695C85.5581 29.9897 85.7224 30.2163 86.0511 30.375C86.3797 30.5223 86.8274 30.596 87.3941 30.596C87.9721 30.596 88.4254 30.5223 88.7541 30.375C89.0827 30.2163 89.2471 29.9897 89.2471 29.695C89.2471 29.4117 89.0827 29.1907 88.7541 29.032C88.4254 28.8733 87.9721 28.794 87.3941 28.794C86.8274 28.794 86.3797 28.8733 86.0511 29.032C85.7224 29.1907 85.5581 29.4117 85.5581 29.695ZM105.065 35.866V37.498H111.372V35.866H113.463V42.275H102.991V35.866H105.065ZM101.359 33.163H111.083C111.321 32.007 111.44 30.783 111.44 29.491H103.059V27.808H113.497V29.015C113.497 29.8197 113.475 30.5223 113.429 31.123C113.395 31.7237 113.305 32.4037 113.157 33.163H115.146V34.863H101.359V33.163ZM111.372 40.575V39.113H105.065V40.575H111.372ZM121.93 27.893V29.338C121.93 30.358 122.23 31.2817 122.831 32.109C123.443 32.925 124.332 33.5143 125.5 33.877L124.48 35.526C123.641 35.254 122.921 34.8573 122.321 34.336C121.72 33.8147 121.244 33.197 120.893 32.483C120.53 33.265 120.037 33.9393 119.414 34.506C118.802 35.0727 118.059 35.4977 117.187 35.781L116.15 34.115C117.351 33.7297 118.258 33.1007 118.87 32.228C119.482 31.3553 119.788 30.392 119.788 29.338V27.893H121.93ZM118.462 36.954H128.832V42.428H126.707V38.637H118.462V36.954ZM126.707 27.196H128.832V36.274H126.707V27.196ZM146.945 27.179V31.565H149.002V33.299H146.945V38.28H144.837V27.179H146.945ZM135.113 32.041C135.113 31.3043 135.295 30.6413 135.657 30.052C136.02 29.4627 136.513 29.0037 137.136 28.675C137.76 28.335 138.457 28.165 139.227 28.165C139.998 28.165 140.695 28.335 141.318 28.675C141.942 29.0037 142.435 29.4627 142.797 30.052C143.16 30.6413 143.341 31.3043 143.341 32.041C143.341 32.7663 143.16 33.4237 142.797 34.013C142.435 34.6023 141.942 35.067 141.318 35.407C140.695 35.7357 139.998 35.9 139.227 35.9C138.457 35.9 137.76 35.7357 137.136 35.407C136.513 35.067 136.02 34.6023 135.657 34.013C135.295 33.4237 135.113 32.7663 135.113 32.041ZM137.153 32.041C137.153 32.653 137.352 33.146 137.748 33.52C138.145 33.8827 138.638 34.064 139.227 34.064C139.828 34.064 140.321 33.8827 140.706 33.52C141.103 33.146 141.301 32.653 141.301 32.041C141.301 31.4177 141.103 30.9247 140.706 30.562C140.321 30.188 139.828 30.001 139.227 30.001C138.638 30.001 138.145 30.188 137.748 30.562C137.352 30.9247 137.153 31.4177 137.153 32.041ZM137.17 37.124H139.278V40.456H147.523V42.139H137.17V37.124ZM162.858 27.179V42.411H160.852V34.795H159.407V41.68H157.452V27.468H159.407V33.095H160.852V27.179H162.858ZM150.448 28.896H152.539V36.869C153.989 36.8237 155.338 36.682 156.585 36.444L156.789 38.246C155.225 38.5407 153.462 38.688 151.502 38.688H150.448V28.896Z" fill="#F2F5F8"/>
<path d="M222.79 38.852C223.247 38.852 223.653 38.6887 224.008 38.362C224.372 38.0353 224.652 37.578 224.848 36.99C225.044 36.3927 225.142 35.7113 225.142 34.946C225.142 34.1713 225.044 33.49 224.848 32.902C224.652 32.314 224.376 31.8567 224.022 31.53C223.667 31.2033 223.256 31.04 222.79 31.04C222.323 31.04 221.908 31.2033 221.544 31.53C221.189 31.8567 220.914 32.314 220.718 32.902C220.522 33.49 220.424 34.1713 220.424 34.946C220.424 35.7113 220.522 36.3927 220.718 36.99C220.914 37.578 221.189 38.0353 221.544 38.362C221.908 38.6887 222.323 38.852 222.79 38.852ZM218.968 34.946C218.968 33.9473 219.131 33.056 219.458 32.272C219.784 31.4787 220.237 30.8627 220.816 30.424C221.394 29.976 222.052 29.752 222.79 29.752C223.527 29.752 224.185 29.976 224.764 30.424C225.342 30.8627 225.79 31.4787 226.108 32.272C226.434 33.056 226.598 33.9473 226.598 34.946C226.598 35.9447 226.434 36.8407 226.108 37.634C225.79 38.418 225.342 39.0293 224.764 39.468C224.185 39.9067 223.527 40.126 222.79 40.126C222.052 40.126 221.394 39.9067 220.816 39.468C220.237 39.0293 219.784 38.418 219.458 37.634C219.131 36.8407 218.968 35.9447 218.968 34.946ZM231.355 38.866C231.961 38.866 232.456 38.67 232.839 38.278C233.231 37.886 233.427 37.3773 233.427 36.752C233.427 36.1267 233.231 35.618 232.839 35.226C232.456 34.8247 231.961 34.624 231.355 34.624C230.757 34.624 230.267 34.8247 229.885 35.226C229.502 35.618 229.311 36.1267 229.311 36.752C229.311 37.3773 229.502 37.886 229.885 38.278C230.267 38.67 230.757 38.866 231.355 38.866ZM227.855 36.752C227.855 36.136 228.041 35.492 228.415 34.82L231.229 29.836H232.895L230.851 33.406C231.009 33.3687 231.196 33.35 231.411 33.35C232.083 33.35 232.68 33.4993 233.203 33.798C233.735 34.0873 234.145 34.4887 234.435 35.002C234.733 35.5153 234.883 36.0987 234.883 36.752C234.883 37.4053 234.733 37.9887 234.435 38.502C234.136 39.0153 233.721 39.4167 233.189 39.706C232.657 39.9953 232.05 40.14 231.369 40.14C230.687 40.14 230.081 39.9953 229.549 39.706C229.017 39.4167 228.601 39.0153 228.303 38.502C228.004 37.9887 227.855 37.4053 227.855 36.752ZM240.85 40.784H239.394L242.39 29.192H243.832L240.85 40.784ZM254.013 34.778C254.461 35.0393 254.815 35.394 255.077 35.842C255.347 36.2807 255.483 36.7193 255.483 37.158C255.483 37.7273 255.338 38.236 255.049 38.684C254.759 39.132 254.353 39.482 253.831 39.734C253.308 39.986 252.715 40.112 252.053 40.112C251.39 40.112 250.797 39.986 250.275 39.734C249.752 39.4727 249.341 39.1133 249.043 38.656C248.753 38.1893 248.609 37.662 248.609 37.074H250.065C250.065 37.5873 250.251 38.0073 250.625 38.334C250.998 38.6607 251.474 38.824 252.053 38.824C252.65 38.824 253.135 38.6653 253.509 38.348C253.882 38.0213 254.069 37.6013 254.069 37.088C254.069 36.584 253.882 36.1733 253.509 35.856C253.135 35.5387 252.659 35.38 252.081 35.38H251.353V34.162H252.081C252.622 34.162 253.065 34.0173 253.411 33.728C253.756 33.4387 253.929 33.0653 253.929 32.608C253.929 32.1507 253.761 31.782 253.425 31.502C253.089 31.2127 252.659 31.068 252.137 31.068C251.623 31.068 251.199 31.2127 250.863 31.502C250.536 31.7913 250.373 32.1647 250.373 32.622H248.917C248.917 32.0713 249.052 31.5813 249.323 31.152C249.603 30.7133 249.985 30.3773 250.471 30.144C250.956 29.9013 251.511 29.78 252.137 29.78C252.753 29.78 253.303 29.8967 253.789 30.13C254.283 30.3633 254.666 30.69 254.937 31.11C255.207 31.53 255.343 32.006 255.343 32.538C255.343 32.9393 255.221 33.35 254.979 33.77C254.736 34.1807 254.414 34.5167 254.013 34.778ZM260.565 38.852C261.022 38.852 261.428 38.6887 261.783 38.362C262.147 38.0353 262.427 37.578 262.623 36.99C262.819 36.3927 262.917 35.7113 262.917 34.946C262.917 34.1713 262.819 33.49 262.623 32.902C262.427 32.314 262.152 31.8567 261.797 31.53C261.442 31.2033 261.032 31.04 260.565 31.04C260.098 31.04 259.683 31.2033 259.319 31.53C258.964 31.8567 258.689 32.314 258.493 32.902C258.297 33.49 258.199 34.1713 258.199 34.946C258.199 35.7113 258.297 36.3927 258.493 36.99C258.689 37.578 258.964 38.0353 259.319 38.362C259.683 38.6887 260.098 38.852 260.565 38.852ZM256.743 34.946C256.743 33.9473 256.906 33.056 257.233 32.272C257.56 31.4787 258.012 30.8627 258.591 30.424C259.17 29.976 259.828 29.752 260.565 29.752C261.302 29.752 261.96 29.976 262.539 30.424C263.118 30.8627 263.566 31.4787 263.883 32.272C264.21 33.056 264.373 33.9473 264.373 34.946C264.373 35.9447 264.21 36.8407 263.883 37.634C263.566 38.418 263.118 39.0293 262.539 39.468C261.96 39.9067 261.302 40.126 260.565 40.126C259.828 40.126 259.17 39.9067 258.591 39.468C258.012 39.0293 257.56 38.418 257.233 37.634C256.906 36.8407 256.743 35.9447 256.743 34.946Z" fill="#E2E7EC"/>
<path d="M29.76 60.264V61.308H26.208V66.312C27.112 66.304 27.876 66.28 28.5 66.24C29.124 66.192 29.752 66.112 30.384 66L30.516 67.044C29.804 67.172 29.096 67.26 28.392 67.308C27.688 67.356 26.812 67.38 25.764 67.38H24.924V60.264H29.76ZM29.208 63.06H32.004V59.292H33.288V69.984H32.004V64.104H29.208V63.06ZM46.0139 59.292V61.452H47.4899V62.508H46.0139V64.656H44.7179V59.292H46.0139ZM37.7939 62.028C37.7939 61.564 37.9139 61.152 38.1539 60.792C38.4019 60.424 38.7379 60.14 39.1619 59.94C39.5859 59.732 40.0619 59.628 40.5899 59.628C41.1259 59.628 41.6059 59.732 42.0299 59.94C42.4619 60.14 42.7979 60.424 43.0379 60.792C43.2859 61.152 43.4099 61.564 43.4099 62.028C43.4099 62.492 43.2859 62.908 43.0379 63.276C42.7979 63.636 42.4619 63.92 42.0299 64.128C41.6059 64.328 41.1259 64.428 40.5899 64.428C40.0619 64.428 39.5859 64.328 39.1619 64.128C38.7379 63.92 38.4019 63.636 38.1539 63.276C37.9139 62.908 37.7939 62.492 37.7939 62.028ZM39.0419 62.028C39.0419 62.436 39.1859 62.768 39.4739 63.024C39.7699 63.272 40.1419 63.396 40.5899 63.396C41.0459 63.396 41.4179 63.272 41.7059 63.024C42.0019 62.768 42.1499 62.436 42.1499 62.028C42.1499 61.62 42.0019 61.292 41.7059 61.044C41.4179 60.796 41.0459 60.672 40.5899 60.672C40.1419 60.672 39.7699 60.8 39.4739 61.056C39.1859 61.304 39.0419 61.628 39.0419 62.028ZM39.0899 65.112H46.0139V67.908H40.3859V68.808H46.3499V69.828H39.1139V66.96H44.7299V66.12H39.0899V65.112ZM51.0062 60.06C51.5342 60.06 52.0062 60.216 52.4222 60.528C52.8382 60.832 53.1622 61.272 53.3942 61.848C53.6342 62.416 53.7542 63.076 53.7542 63.828C53.7542 64.588 53.6342 65.256 53.3942 65.832C53.1622 66.4 52.8382 66.84 52.4222 67.152C52.0062 67.464 51.5342 67.62 51.0062 67.62C50.4782 67.62 50.0022 67.464 49.5782 67.152C49.1622 66.84 48.8342 66.4 48.5942 65.832C48.3622 65.256 48.2462 64.588 48.2462 63.828C48.2462 63.076 48.3622 62.416 48.5942 61.848C48.8342 61.272 49.1622 60.832 49.5782 60.528C50.0022 60.216 50.4782 60.06 51.0062 60.06ZM49.4942 63.828C49.4942 64.644 49.6302 65.284 49.9022 65.748C50.1822 66.212 50.5502 66.444 51.0062 66.444C51.4622 66.444 51.8262 66.212 52.0982 65.748C52.3782 65.284 52.5182 64.644 52.5182 63.828C52.5182 63.02 52.3782 62.388 52.0982 61.932C51.8262 61.468 51.4622 61.236 51.0062 61.236C50.5502 61.236 50.1822 61.468 49.9022 61.932C49.6302 62.388 49.4942 63.02 49.4942 63.828ZM55.1582 59.292H56.4542V63.42H58.0742V64.488H56.4542V69.96H55.1582V59.292ZM62.8145 67.608V65.496H59.7185V60H60.9905V61.752H65.9345V60H67.2065V65.496H64.0985V67.608H68.2985V68.664H58.6385V67.608H62.8145ZM65.9345 64.476V62.772H60.9905V64.476H65.9345ZM77.9468 59.292V69.96H76.6508V59.292H77.9468ZM69.1868 67.056C70.5548 66.392 71.5828 65.604 72.2708 64.692C72.9588 63.772 73.3588 62.688 73.4708 61.44H69.7268V60.408H74.7908C74.7908 62.112 74.4108 63.604 73.6508 64.884C72.8908 66.156 71.6308 67.22 69.8708 68.076L69.1868 67.056Z" fill="#E2E7EC"/>
<path d="M85.8078 67.8047C85.5651 67.5602 85.5658 67.1655 85.8094 66.9219L88.09 64.6413C88.1681 64.5632 88.1681 64.4367 88.0902 64.3586L85.8087 62.0721C85.5656 61.8286 85.5659 61.4342 85.8092 61.1909V61.1909C86.0526 60.9474 86.4474 60.9474 86.6909 61.1909L89.2929 63.7929C89.6834 64.1834 89.6834 64.8166 89.2929 65.2071L86.6938 67.8062C86.449 68.0511 86.0518 68.0504 85.8078 67.8047V67.8047Z" fill="#E2E7EC"/>
</svg>
