<svg width="143" height="72" viewBox="0 0 143 72" fill="none" xmlns="http://www.w3.org/2000/svg">
<path d="M12 2C6.48 2 2 6.48 2 12C2 17.52 6.48 22 12 22C17.52 22 22 17.52 22 12C22 6.48 17.52 2 12 2ZM12 20C7.58 20 4 16.42 4 12C4 7.58 7.58 4 12 4C16.42 4 20 7.58 20 12C20 16.42 16.42 20 12 20Z" fill="#42464A"/>
<path d="M44.438 4.438H46.292V14.32H44.438V4.438ZM32.504 10.486C34.628 10.486 38.138 10.45 40.712 10.036L40.856 11.332C39.866 11.53 38.786 11.674 37.706 11.764V14.248H35.852V11.89C34.682 11.926 33.584 11.944 32.702 11.944L32.504 10.486ZM33.224 7.372C33.224 5.896 34.646 4.978 36.716 4.978C38.804 4.978 40.208 5.896 40.208 7.372C40.208 8.83 38.804 9.766 36.716 9.766C34.646 9.766 33.224 8.83 33.224 7.372ZM34.952 7.372C34.952 8.038 35.636 8.398 36.716 8.398C37.796 8.398 38.48 8.038 38.48 7.372C38.48 6.706 37.796 6.328 36.716 6.328C35.636 6.328 34.952 6.706 34.952 7.372ZM35.168 20.242V14.86H37.094V16.084H44.366V14.86H46.292V20.242H35.168ZM37.094 18.748H44.366V17.542H37.094V18.748ZM38.912 13.6V12.304H41.468V4.726H43.268V14.284H41.468V13.6H38.912ZM48.3444 16.894H62.8344V18.496H48.3444V16.894ZM49.5324 7.462V5.896H61.5924V7.462H59.2704V12.592H61.5384V14.14H49.6044V12.592H51.8364V7.462H49.5324ZM53.7804 12.592H57.3444V7.462H53.7804V12.592ZM64.0768 17.002H70.3408V14.338H65.8048V9.118H74.9668V7.066H65.7868V5.518H76.8748V10.648H67.7308V12.79H77.2348V14.338H72.2668V17.002H78.5668V18.568H64.0768V17.002ZM81.3393 5.986H92.4453V7.768C92.4453 9.91 92.4453 12.142 91.8513 15.508L89.9073 15.328C90.5193 12.178 90.5193 9.856 90.5193 7.768V7.534H81.3393V5.986ZM79.8093 18.244V16.66H94.2813V18.244H79.8093ZM95.9917 6.076H102.022V12.016H97.8817V15.184C99.5017 15.166 101.032 15.076 102.796 14.788L102.958 16.354C100.834 16.732 99.0697 16.786 97.1077 16.786H96.0277V10.486H100.15V7.624H95.9917V6.076ZM103.75 19.648V4.744H105.568V10.594H107.368V4.438H109.204V20.44H107.368V12.16H105.568V19.648H103.75ZM112.102 5.572H119.716V12.664H112.102V5.572ZM113.704 17.308C113.704 15.346 115.792 14.194 119.14 14.194C122.47 14.194 124.576 15.346 124.576 17.308C124.576 19.288 122.47 20.422 119.14 20.422C115.792 20.422 113.704 19.288 113.704 17.308ZM113.974 11.134H117.826V7.102H113.974V11.134ZM115.63 17.308C115.63 18.352 116.908 18.928 119.14 18.928C121.354 18.928 122.65 18.352 122.65 17.308C122.65 16.264 121.354 15.706 119.14 15.706C116.908 15.706 115.63 16.264 115.63 17.308ZM122.542 13.924V4.456H124.486V13.924H122.542ZM127.709 6.076H135.863V7.21C135.863 8.65 135.863 10.648 135.431 13.438L133.523 13.276C133.937 10.846 133.973 9.028 133.973 7.642H127.709V6.076ZM126.863 15.508C127.799 15.508 128.843 15.508 129.941 15.49V10.666H131.849V15.436C133.487 15.382 135.143 15.274 136.673 15.076L136.781 16.48C133.505 17.02 129.851 17.092 127.061 17.092L126.863 15.508ZM137.519 20.44V4.438H139.445V10.99H141.785V12.592H139.445V20.44H137.519Z" fill="#42464A"/>
<path d="M12 50C6.48 50 2 54.48 2 60C2 65.52 6.48 70 12 70C17.52 70 22 65.52 22 60C22 54.48 17.52 50 12 50ZM12 68C7.58 68 4 64.42 4 60C4 55.58 7.58 52 12 52C16.42 52 20 55.58 20 60C20 64.42 16.42 68 12 68Z" fill="#42464A"/>
<path d="M32.576 54.994H35.546V52.87H37.454V54.994H40.352V56.542H32.576V54.994ZM33.026 61.15C33.026 58.954 34.466 57.406 36.5 57.406C38.516 57.406 39.974 58.954 39.974 61.15C39.974 63.364 38.516 64.894 36.5 64.894C34.466 64.894 33.026 63.364 33.026 61.15ZM34.736 61.15C34.736 62.446 35.456 63.274 36.5 63.274C37.508 63.274 38.264 62.446 38.264 61.15C38.264 59.854 37.508 59.026 36.5 59.026C35.456 59.026 34.736 59.854 34.736 61.15ZM41.018 67.702V52.762H42.836V59.044H44.42V52.438H46.256V68.44H44.42V60.61H42.836V67.702H41.018ZM56.8404 53.446C56.8404 57.766 54.6624 60.7 49.4244 62.23L48.6864 60.7C51.1164 60.016 52.7004 59.044 53.6544 57.838L48.9024 58.18L48.6324 56.668L54.4644 56.434C54.6264 55.966 54.7344 55.498 54.7884 54.994H49.4244V53.446H56.8404ZM50.7744 65.326C50.7744 63.364 52.8624 62.212 56.1924 62.212C59.5404 62.212 61.6464 63.364 61.6464 65.326C61.6464 67.306 59.5404 68.44 56.1924 68.44C52.8624 68.44 50.7744 67.306 50.7744 65.326ZM52.7004 65.326C52.7004 66.352 53.9604 66.928 56.1924 66.928C58.4244 66.928 59.7024 66.352 59.7024 65.326C59.7024 64.264 58.4244 63.724 56.1924 63.724C53.9604 63.724 52.7004 64.264 52.7004 65.326ZM59.6124 61.942V52.456H61.5384V61.942H59.6124ZM71.4388 62.32C74.7328 62.32 76.7848 63.472 76.7848 65.38C76.7848 67.324 74.7328 68.44 71.4388 68.44C68.1448 68.44 66.0928 67.324 66.0928 65.38C66.0928 63.472 68.1448 62.32 71.4388 62.32ZM64.6528 60.916V53.446H66.5608V55.606H70.3048V53.446H72.2128V60.916H64.6528ZM66.5608 59.386H70.3048V57.118H66.5608V59.386ZM68.0008 65.38C68.0008 66.388 69.2428 66.928 71.4388 66.928C73.6168 66.928 74.8588 66.388 74.8588 65.38C74.8588 64.39 73.6168 63.85 71.4388 63.85C69.2428 63.85 68.0008 64.39 68.0008 65.38ZM74.6788 61.942V52.438H76.6048V56.29H78.8188V57.892H76.6048V61.942H74.6788ZM84.1293 53.59C86.2713 53.59 87.8913 55.408 88.1613 58.342H91.1853V52.42H93.1113V68.476H91.1853V59.89H88.1793C87.9813 62.986 86.3433 64.93 84.1293 64.93C81.7713 64.93 80.0613 62.716 80.0613 59.242C80.0613 55.786 81.7713 53.59 84.1293 53.59ZM81.8973 59.242C81.8973 61.726 82.8153 63.166 84.1293 63.166C85.4793 63.166 86.3613 61.726 86.3613 59.242C86.3613 56.794 85.4793 55.354 84.1293 55.354C82.8153 55.354 81.8973 56.794 81.8973 59.242ZM96.2437 54.076H104.398V55.21C104.398 56.65 104.398 58.648 103.966 61.438L102.058 61.276C102.472 58.846 102.508 57.028 102.508 55.642H96.2437V54.076ZM95.3977 63.508C96.3337 63.508 97.3777 63.508 98.4757 63.49V58.666H100.384V63.436C102.022 63.382 103.678 63.274 105.208 63.076L105.316 64.48C102.04 65.02 98.3857 65.092 95.5957 65.092L95.3977 63.508ZM106.054 68.44V52.438H107.98V58.99H110.32V60.592H107.98V68.44H106.054Z" fill="#42464A"/>
</svg>
