<svg width="164" height="88" viewBox="0 0 164 88" fill="none" xmlns="http://www.w3.org/2000/svg">
<path d="M0.5 32.5H163.5V76C163.5 82.3513 158.351 87.5 152 87.5H12C5.64872 87.5 0.5 82.3513 0.5 76V32.5Z" fill="#F2F5F8"/>
<path d="M24.49 61.774H26.912V60.066H28.172V61.774H30.566V62.81H24.49V61.774ZM24.882 66.408C24.882 64.756 25.988 63.58 27.542 63.58C29.082 63.58 30.202 64.756 30.202 66.408C30.202 68.102 29.082 69.264 27.542 69.264C25.988 69.264 24.882 68.102 24.882 66.408ZM26.016 66.408C26.016 67.472 26.646 68.186 27.542 68.186C28.424 68.186 29.068 67.472 29.068 66.408C29.068 65.358 28.424 64.644 27.542 64.644C26.646 64.644 26.016 65.358 26.016 66.408ZM31.14 71.476V59.996H32.344V64.882H33.772V59.716H34.99V72.064H33.772V65.932H32.344V71.476H31.14ZM43.2783 60.542C43.2783 63.776 41.5423 66.072 37.5523 67.234L37.0623 66.212C39.0503 65.652 40.3523 64.812 41.1083 63.776L37.1883 64.056L37.0063 63.034L41.6403 62.824C41.7943 62.432 41.8783 62.012 41.9203 61.578H37.6083V60.542H43.2783ZM38.6443 69.684C38.6443 68.186 40.2403 67.304 42.8023 67.304C45.3643 67.304 46.9743 68.186 46.9743 69.684C46.9743 71.196 45.3643 72.064 42.8023 72.064C40.2403 72.064 38.6443 71.196 38.6443 69.684ZM39.9183 69.684C39.9183 70.552 40.9823 71.056 42.8023 71.056C44.6083 71.056 45.7003 70.552 45.7003 69.684C45.7003 68.802 44.6083 68.312 42.8023 68.312C40.9823 68.312 39.9183 68.802 39.9183 69.684ZM45.6163 67.108V59.73H46.8903V67.108H45.6163ZM54.6607 67.416C57.1947 67.416 58.7487 68.284 58.7487 69.74C58.7487 71.21 57.1947 72.064 54.6607 72.064C52.1267 72.064 50.5727 71.21 50.5727 69.74C50.5727 68.284 52.1267 67.416 54.6607 67.416ZM49.4807 66.226V60.5H50.7547V62.278H53.9887V60.5H55.2487V66.226H49.4807ZM50.7547 65.204H53.9887V63.286H50.7547V65.204ZM51.8187 69.74C51.8187 70.58 52.8827 71.056 54.6607 71.056C56.4247 71.056 57.4747 70.58 57.4747 69.74C57.4747 68.914 56.4247 68.438 54.6607 68.438C52.8827 68.438 51.8187 68.914 51.8187 69.74ZM57.3347 67.108V59.73H58.6227V62.782H60.3867V63.846H58.6227V67.108H57.3347ZM64.531 60.654C66.197 60.654 67.429 62.068 67.611 64.378H70.159V59.702H71.433V72.092H70.159V65.4H67.625C67.499 67.808 66.239 69.32 64.531 69.32C62.725 69.32 61.437 67.626 61.437 64.98C61.437 62.32 62.725 60.654 64.531 60.654ZM62.641 64.98C62.641 66.94 63.411 68.172 64.531 68.172C65.665 68.172 66.421 66.94 66.421 64.98C66.421 63.02 65.665 61.802 64.531 61.802C63.411 61.802 62.641 63.02 62.641 64.98ZM74.0093 61.032H80.2673V61.788C80.2673 62.838 80.2673 64.42 79.9173 66.66L78.6713 66.548C78.9933 64.56 79.0213 63.104 79.0213 62.082H74.0093V61.032ZM73.3373 68.368C74.1073 68.368 74.9613 68.354 75.8573 68.34V64.574H77.1173V68.298C78.4333 68.256 79.7773 68.172 80.9953 68.018L81.0653 68.942C78.5173 69.362 75.6613 69.418 73.4913 69.418L73.3373 68.368ZM81.7093 72.064V59.716H82.9693V64.84H84.8873V65.904H82.9693V72.064H81.7093Z" fill="#42464A"/>
<path d="M0.5 32.5H163.5V76C163.5 82.3513 158.351 87.5 152 87.5H12C5.64872 87.5 0.5 82.3513 0.5 76V32.5Z" stroke="#E2E7EC"/>
<rect x="0.5" y="0.5" width="163" height="43" rx="11.5" fill="white"/>
<path d="M33.744 15.73H34.962V23.36H33.744V15.73ZM24.434 20.462C26.114 20.462 28.844 20.434 30.86 20.112L30.958 20.98C30.146 21.148 29.25 21.26 28.368 21.33V23.318H27.15V21.4C26.198 21.442 25.302 21.442 24.574 21.442L24.434 20.462ZM25.036 17.984C25.036 16.85 26.128 16.136 27.724 16.136C29.334 16.136 30.412 16.85 30.412 17.984C30.412 19.104 29.334 19.818 27.724 19.818C26.128 19.818 25.036 19.104 25.036 17.984ZM26.184 17.984C26.184 18.572 26.786 18.908 27.724 18.908C28.662 18.908 29.264 18.572 29.264 17.984C29.264 17.396 28.662 17.046 27.724 17.046C26.786 17.046 26.184 17.396 26.184 17.984ZM26.562 27.91V23.794H27.822V24.858H33.702V23.794H34.962V27.91H26.562ZM27.822 26.902H33.702V25.838H27.822V26.902ZM29.404 22.702V21.82H31.49V15.94H32.694V23.332H31.49V22.702H29.404ZM36.7543 25.46H47.9403V26.524H36.7543V25.46ZM37.7203 17.956V16.906H46.9323V17.956H45.0703V22.1H46.9043V23.136H37.7483V22.1H39.5683V17.956H37.7203ZM40.8563 22.1H43.7963V17.956H40.8563V22.1ZM48.9907 25.53H53.9327V23.318H50.3627V19.412H57.5587V17.634H50.3347V16.598H58.8327V20.42H51.6227V22.282H59.1127V23.318H55.2067V25.53H60.1767V26.58H48.9907V25.53ZM62.431 16.976H70.929V18.264C70.929 19.874 70.929 21.624 70.467 24.256L69.179 24.144C69.655 21.666 69.655 19.846 69.655 18.264V18.012H62.431V16.976ZM61.227 26.314V25.25H72.399V26.314H61.227ZM73.8413 17.032H78.4613V21.47H75.0873V24.102C76.4173 24.088 77.6773 24.046 79.1613 23.794L79.2593 24.83C77.5793 25.138 76.2073 25.166 74.6813 25.166H73.8553V20.448H77.2293V18.068H73.8413V17.032ZM79.9453 27.434V15.982H81.1493V20.546H82.7453V15.716H83.9633V28.064H82.7453V21.596H81.1493V27.434H79.9453ZM86.3436 16.626H92.1396V22.03H86.3436V16.626ZM87.5756 21.022H90.9076V17.634H87.5756V21.022ZM87.5896 25.67C87.5896 24.172 89.1856 23.29 91.7616 23.29C94.3096 23.29 95.9196 24.172 95.9196 25.67C95.9196 27.182 94.3096 28.05 91.7616 28.05C89.1856 28.05 87.5896 27.182 87.5896 25.67ZM88.8636 25.67C88.8636 26.538 89.9416 27.056 91.7616 27.056C93.5536 27.056 94.6456 26.538 94.6456 25.67C94.6456 24.802 93.5536 24.298 91.7616 24.298C89.9416 24.298 88.8636 24.802 88.8636 25.67ZM94.5616 23.08V15.73H95.8496V23.08H94.5616ZM98.482 17.032H104.74V17.788C104.74 18.838 104.74 20.42 104.39 22.66L103.144 22.548C103.466 20.56 103.494 19.104 103.494 18.082H98.482V17.032ZM97.81 24.368C98.58 24.368 99.434 24.354 100.33 24.34V20.574H101.59V24.298C102.906 24.256 104.25 24.172 105.468 24.018L105.538 24.942C102.99 25.362 100.134 25.418 97.964 25.418L97.81 24.368ZM106.182 28.064V15.716H107.442V20.84H109.36V21.904H107.442V28.064H106.182Z" fill="#42464A"/>
<path d="M133.75 25L139 19L144.25 25" stroke="#42464A" stroke-width="2" stroke-linecap="round" stroke-linejoin="round"/>
<rect x="0.5" y="0.5" width="163" height="43" rx="11.5" stroke="#E2E7EC"/>
</svg>
