<svg width="289" height="92" viewBox="0 0 289 92" fill="none" xmlns="http://www.w3.org/2000/svg">
<path d="M65.0478 3.104H66.5038V17.248H65.0478V3.104ZM55.8318 13.776V4.432H62.5358V5.648H57.2718V12.544C59.9438 12.544 61.6718 12.464 63.6558 12.08L63.7998 13.312C61.7038 13.712 59.8798 13.776 56.9838 13.776H55.8318ZM69.6881 4.464H76.2481V13.728H69.6881V4.464ZM71.1281 12.544H74.8241V5.632H71.1281V12.544ZM79.0321 17.248V3.088H80.4881V17.248H79.0321ZM84.2485 4.464H94.2005V5.856C94.2005 7.6 94.2005 9.552 93.6885 12.432L92.2165 12.272C92.7445 9.536 92.7445 7.552 92.7445 5.856V5.664H84.2485V4.464ZM82.9045 15.312V14.096H87.7685V9.104H89.2245V14.096H95.6725V15.312H82.9045ZM107.513 3.104H108.905V17.216H107.513V3.104ZM97.0489 9.2C97.0489 6.144 98.2329 4.24 100.057 4.24C101.753 4.24 102.905 5.872 103.065 8.528H104.681V3.408H106.057V16.528H104.681V9.728H103.065C102.937 12.496 101.785 14.176 100.057 14.176C98.2329 14.176 97.0489 12.272 97.0489 9.2ZM98.3769 9.2C98.3769 11.472 99.0169 12.8 100.057 12.8C101.113 12.8 101.753 11.472 101.753 9.2C101.753 6.944 101.113 5.616 100.057 5.616C99.0169 5.616 98.3769 6.944 98.3769 9.2ZM124.689 3.12H126.145V10.688H124.689V3.12ZM114.849 7.024C114.849 5.104 116.417 3.776 118.561 3.776C120.705 3.776 122.273 5.104 122.273 7.024C122.273 8.96 120.705 10.304 118.561 10.304C116.417 10.304 114.849 8.96 114.849 7.024ZM116.273 7.024C116.273 8.256 117.233 9.072 118.561 9.072C119.889 9.072 120.849 8.256 120.849 7.024C120.849 5.808 119.889 4.976 118.561 4.976C117.233 4.976 116.273 5.808 116.273 7.024ZM116.993 17.04V11.376H118.449V12.976H124.705V11.376H126.145V17.04H116.993ZM118.449 15.872H124.705V14.128H118.449V15.872ZM128.577 4.544H132.017V3.024H133.473V4.544H136.913V5.712H128.577V4.544ZM129.345 8.944C129.345 7.392 130.721 6.368 132.737 6.368C134.769 6.368 136.145 7.392 136.145 8.944C136.145 10.496 134.769 11.488 132.737 11.488C130.721 11.488 129.345 10.496 129.345 8.944ZM130.321 13.84V12.656H139.537V17.232H138.065V13.84H130.321ZM130.737 8.944C130.737 9.808 131.537 10.384 132.737 10.384C133.937 10.384 134.737 9.808 134.737 8.944C134.737 8.048 133.937 7.504 132.737 7.504C131.537 7.504 130.737 8.048 130.737 8.944ZM138.065 11.936V3.12H139.537V6.944H141.569V8.16H139.537V11.936H138.065ZM151.986 3.12H153.442V8.848H155.682V10.064H153.442V17.232H151.986V3.12ZM142.45 6.512V5.328H145.906V3.296H147.394V5.328H150.77V6.512H142.45ZM143.202 10.864C143.202 8.944 144.674 7.6 146.658 7.6C148.674 7.6 150.13 8.944 150.13 10.864C150.13 12.784 148.674 14.128 146.658 14.128C144.674 14.128 143.202 12.784 143.202 10.864ZM144.594 10.864C144.594 12.096 145.458 12.928 146.658 12.928C147.858 12.928 148.738 12.096 148.738 10.864C148.738 9.648 147.858 8.8 146.658 8.8C145.458 8.8 144.594 9.648 144.594 10.864ZM160.146 4.304H161.618V6.704C161.618 9.296 163.17 11.904 165.314 12.88L164.45 14.048C162.834 13.264 161.57 11.664 160.914 9.712C160.258 11.792 158.962 13.504 157.282 14.32L156.402 13.12C158.578 12.112 160.146 9.408 160.146 6.704V4.304ZM166.61 17.248V3.088H168.066V17.248H166.61ZM176.706 4.128C176.706 5.184 176.53 6.16 176.178 7.04H178.226V3.408H179.586V11.024H178.226V8.224H175.57C174.674 9.616 173.266 10.72 171.346 11.552L170.61 10.464C173.394 9.344 174.914 7.616 175.186 5.328H171.234V4.128H176.706ZM171.282 16.096C173.074 15.44 174.082 13.936 174.082 12.56V11.712H175.49V12.56C175.49 13.808 176.066 15.088 177.33 15.856C178.626 15.008 179.25 13.632 179.25 12.56V11.712H180.674V12.56C180.674 14.048 181.65 15.504 183.458 16.096L182.754 17.168C181.378 16.656 180.434 15.696 179.938 14.512C179.522 15.664 178.69 16.736 177.378 17.28C176.034 16.752 175.186 15.744 174.754 14.576C174.258 15.712 173.33 16.656 172.002 17.168L171.282 16.096ZM181.026 11.232V3.104H182.434V11.232H181.026ZM186.067 11.568H187.507V13.104H194.131V11.568H195.571V17.04H186.067V11.568ZM184.483 10.656V9.488H197.235V10.656H184.483ZM185.187 7.424C187.875 7.072 190.115 5.552 190.115 3.84V3.264H191.619V3.84C191.619 5.52 193.875 7.088 196.531 7.424L196.003 8.56C193.763 8.24 191.779 7.168 190.867 5.648C189.971 7.168 187.971 8.24 185.731 8.56L185.187 7.424ZM187.507 15.872H194.131V14.224H187.507V15.872ZM208.627 3.104H210.067V17.216H208.627V3.104ZM199.315 13.616V4.48H200.771V12.368C202.803 12.352 204.963 12.192 207.235 11.712L207.427 12.944C204.979 13.456 202.707 13.616 200.515 13.616H199.315ZM222.115 3.104H223.555V8.848H225.619V10.064H223.555V17.216H222.115V3.104ZM212.339 13.264C214.387 11.12 215.155 8.656 215.283 5.808H212.835V4.608H216.659C216.659 8.128 216.035 11.36 213.491 14.112L212.339 13.264ZM216.355 14.208C218.435 11.744 219.043 8.816 219.155 5.808H217.123V4.608H220.531C220.531 8.176 220.083 11.952 217.523 15.024L216.355 14.208ZM229.94 16.288C229.412 16.288 229.044 15.92 229.044 15.376C229.044 14.864 229.412 14.496 229.94 14.496C230.468 14.496 230.82 14.864 230.82 15.376C230.82 15.92 230.468 16.288 229.94 16.288ZM226.596 6.608C227.172 5.072 228.66 4 230.212 4C232.42 4 233.892 5.472 233.796 7.552C233.732 8.64 233.172 9.696 231.684 10.816C230.852 11.424 230.644 11.856 230.66 13.056L229.22 13.088C229.204 11.472 229.652 10.512 230.82 9.664C232.02 8.768 232.308 8.192 232.356 7.488C232.42 6.272 231.524 5.44 230.212 5.44C229.252 5.44 228.324 6.128 227.94 7.12L226.596 6.608Z" fill="#42464A"/>
<rect y="40" width="136" height="52" rx="16" fill="#F86060"/>
<path d="M41.4713 60.544H44.3833V59.088H46.1113V60.544H49.0553V61.888H46.1113C46.1273 63.136 47.2793 64.24 49.3433 64.672L48.6553 66C47.0553 65.664 45.9033 64.88 45.2953 63.872C44.6713 64.992 43.5033 65.824 41.8233 66.192L41.1193 64.864C43.2473 64.416 44.3833 63.216 44.3993 61.888H41.4713V60.544ZM40.5753 66.96C43.1993 66.96 46.7193 66.944 49.7433 66.528L49.8553 67.792C48.6233 68 47.3593 68.144 46.1113 68.224V72.864H44.3833V68.32C43.0873 68.368 41.8713 68.384 40.7833 68.384L40.5753 66.96ZM50.6553 73.28V59.056H52.3513V73.28H50.6553ZM54.5596 70.112H60.0956V66.832H61.7916V70.112H67.4396V71.52H54.5596V70.112ZM54.9596 65.728C57.8716 65.232 60.0316 63.088 60.0316 60.96V59.904H61.8556V60.96C61.8556 63.12 64.0156 65.232 66.9436 65.728L66.2076 67.168C63.8236 66.704 61.8716 65.312 60.9436 63.44C59.9996 65.296 58.0476 66.704 55.6636 67.168L54.9596 65.728ZM77.888 59.056H79.616V64.736H81.776V66.16H79.616V73.28H77.888V59.056ZM68.464 62.608V61.232H71.808V59.264H73.552V61.232H76.816V62.608H68.464ZM69.136 66.912C69.136 64.96 70.656 63.584 72.688 63.584C74.736 63.584 76.224 64.96 76.224 66.912C76.224 68.88 74.736 70.256 72.688 70.256C70.656 70.256 69.136 68.88 69.136 66.912ZM70.784 66.912C70.784 68.096 71.568 68.848 72.688 68.848C73.776 68.848 74.576 68.096 74.576 66.912C74.576 65.744 73.776 64.992 72.688 64.992C71.568 64.992 70.784 65.744 70.784 66.912ZM92.5604 59.056H94.2884V73.28H92.5604V59.056ZM82.6084 69.408C86.3204 67.616 88.0324 65.184 88.3204 61.92H83.3284V60.544H90.0804C90.0804 64.8 88.4484 68.384 83.5204 70.768L82.6084 69.408Z" fill="white"/>
<rect x="153" y="40" width="136" height="52" rx="16" fill="#3D92F4"/>
<path d="M203.591 59.056H205.303V66.688H203.591V59.056ZM193.831 62.992C193.831 61.056 195.431 59.696 197.623 59.696C199.799 59.696 201.415 61.056 201.415 62.992C201.415 64.96 199.799 66.32 197.623 66.32C195.431 66.32 193.831 64.96 193.831 62.992ZM195.511 62.992C195.511 64.16 196.391 64.896 197.623 64.896C198.855 64.896 199.735 64.16 199.735 62.992C199.735 61.856 198.855 61.104 197.623 61.104C196.391 61.104 195.511 61.856 195.511 62.992ZM195.991 73.104V67.36H197.687V68.848H203.607V67.36H205.303V73.104H195.991ZM197.687 71.728H203.607V70.176H197.687V71.728ZM207.576 60.416H210.92V58.976H212.632V60.416H215.96V61.776H207.576V60.416ZM208.328 64.96C208.328 63.392 209.736 62.336 211.768 62.336C213.816 62.336 215.24 63.392 215.24 64.96C215.24 66.512 213.816 67.536 211.768 67.536C209.736 67.536 208.328 66.512 208.328 64.96ZM209.32 70.016V68.624H218.696V73.28H216.968V70.016H209.32ZM209.96 64.96C209.96 65.76 210.696 66.24 211.768 66.24C212.856 66.24 213.576 65.76 213.576 64.96C213.576 64.128 212.856 63.664 211.768 63.664C210.696 63.664 209.96 64.128 209.96 64.96ZM216.968 67.968V59.056H218.696V62.832H220.664V64.256H218.696V67.968H216.968ZM230.888 59.056H232.616V64.736H234.776V66.16H232.616V73.28H230.888V59.056ZM221.464 62.608V61.232H224.808V59.264H226.552V61.232H229.816V62.608H221.464ZM222.136 66.912C222.136 64.96 223.656 63.584 225.688 63.584C227.736 63.584 229.224 64.96 229.224 66.912C229.224 68.88 227.736 70.256 225.688 70.256C223.656 70.256 222.136 68.88 222.136 66.912ZM223.784 66.912C223.784 68.096 224.568 68.848 225.688 68.848C226.776 68.848 227.576 68.096 227.576 66.912C227.576 65.744 226.776 64.992 225.688 64.992C224.568 64.992 223.784 65.744 223.784 66.912ZM245.56 59.056H247.288V73.28H245.56V59.056ZM235.608 69.408C239.32 67.616 241.032 65.184 241.32 61.92H236.328V60.544H243.08C243.08 64.8 241.448 68.384 236.52 70.768L235.608 69.408Z" fill="white"/>
</svg>
